<svg width="600" height="1450" viewBox="0 0 600 1450" fill="none" xmlns="http://www.w3.org/2000/svg">
<g opacity="0.5">
<path opacity="0.0344828" d="M416 312.722C408.954 304.325 398.353 299.147 384.487 297.068C370.613 294.987 353.533 296.019 333.648 299.994C293.88 307.942 243.104 327.614 184.758 357.296C68.0799 416.654 -78.6718 515.939 -227.822 641.09C-376.972 766.242 -500.232 893.524 -578.948 998.122C-618.311 1050.43 -646.501 1097.02 -661.235 1134.8C-668.602 1153.69 -672.585 1170.33 -672.945 1184.36C-673.304 1198.37 -670.046 1209.71 -663 1218.11C-655.955 1226.51 -645.354 1231.68 -631.488 1233.76C-617.614 1235.85 -600.533 1234.81 -580.649 1230.84C-540.881 1222.89 -490.105 1203.22 -431.759 1173.54C-315.081 1114.18 -168.329 1014.89 -19.1789 889.742C129.971 764.59 253.231 637.308 331.947 532.71C371.311 480.404 399.501 433.816 414.234 396.032C421.601 377.14 425.584 360.499 425.944 346.474C426.303 332.457 423.045 321.118 416 312.722Z" stroke="#2B2C3B" stroke-width="2"/>
<path opacity="0.0689655" d="M374.492 261.795C366.742 254.044 355.73 249.81 341.735 248.947C327.732 248.083 310.807 250.6 291.345 256.292C252.421 267.677 203.553 291.699 148.015 326.354C36.9546 395.654 -100.585 507.352 -238.26 645.027C-375.935 782.701 -487.633 920.241 -556.933 1031.3C-591.588 1086.84 -615.61 1135.71 -626.994 1174.63C-632.687 1194.09 -635.204 1211.02 -634.34 1225.02C-633.477 1239.02 -629.243 1250.03 -621.492 1257.78C-613.742 1265.53 -602.73 1269.76 -588.735 1270.63C-574.732 1271.49 -557.807 1268.97 -538.345 1263.28C-499.421 1251.9 -450.553 1227.87 -395.015 1193.22C-283.955 1123.92 -146.415 1012.22 -8.73977 874.547C128.935 736.872 240.633 599.332 309.933 488.272C344.588 432.734 368.61 383.866 379.994 344.942C385.687 325.48 388.204 308.554 387.34 294.552C386.477 280.557 382.243 269.545 374.492 261.795Z" stroke="#2B2C3B" stroke-width="2"/>
<path opacity="0.103448" d="M329.194 214.656C320.798 207.61 309.459 204.352 295.442 204.712C281.417 205.071 264.776 209.054 245.884 216.421C208.1 231.155 161.512 259.345 109.206 298.708C4.60764 377.424 -122.674 500.684 -247.826 649.834C-372.977 798.984 -472.263 945.736 -531.62 1062.41C-561.302 1120.76 -580.974 1171.54 -588.922 1211.3C-592.897 1231.19 -593.929 1248.27 -591.848 1262.14C-589.769 1276.01 -584.591 1286.61 -576.195 1293.66C-567.798 1300.7 -556.459 1303.96 -542.442 1303.6C-528.418 1303.24 -511.776 1299.26 -492.884 1291.89C-455.1 1277.16 -408.512 1248.97 -356.206 1209.6C-251.608 1130.89 -124.326 1007.63 0.825389 858.477C125.977 709.327 225.262 562.576 284.619 445.897C314.302 387.551 333.974 336.775 341.922 297.007C345.897 277.123 346.929 260.042 344.848 246.168C342.768 232.302 337.591 221.701 329.194 214.656Z" stroke="#2B2C3B" stroke-width="2"/>
<path opacity="0.137931" d="M280.451 171.622C271.473 165.336 259.893 163.078 245.961 164.658C232.021 166.239 215.79 171.657 197.612 180.642C161.256 198.613 117.302 230.756 68.6258 274.528C-28.7139 362.061 -144.768 495.946 -256.444 655.436C-368.121 814.926 -454.238 969.772 -503.2 1091.18C-527.684 1151.89 -542.856 1204.19 -547.308 1244.5C-549.534 1264.65 -549.074 1281.76 -545.792 1295.4C-542.512 1309.03 -536.43 1319.14 -527.451 1325.43C-518.472 1331.71 -506.892 1333.97 -492.961 1332.39C-479.021 1330.81 -462.79 1325.39 -444.611 1316.41C-408.256 1298.44 -364.301 1266.29 -315.625 1222.52C-218.286 1134.99 -102.231 1001.1 9.44481 841.613C121.121 682.123 207.238 527.277 256.2 405.869C280.684 345.158 295.856 292.861 300.308 252.551C302.535 232.396 302.075 215.291 298.792 201.651C295.512 188.019 289.43 177.909 280.451 171.622Z" stroke="#2B2C3B" stroke-width="2"/>
<path opacity="0.172414" d="M228.634 132.981C219.141 127.5 207.409 126.261 193.668 129.049C179.919 131.839 164.221 138.651 146.895 149.186C112.244 170.257 71.2589 206.109 26.5832 253.957C-62.757 349.641 -166.701 493.13 -264.052 661.747C-361.403 830.363 -433.696 992.126 -471.891 1117.34C-490.99 1179.95 -501.546 1233.37 -502.468 1273.92C-502.929 1294.19 -500.98 1311.19 -496.522 1324.49C-492.066 1337.79 -485.126 1347.33 -475.634 1352.81C-466.141 1358.29 -454.408 1359.53 -440.667 1356.74C-426.918 1353.95 -411.221 1347.14 -393.895 1336.6C-359.244 1315.53 -318.259 1279.68 -273.583 1231.83C-184.243 1136.15 -80.2986 992.658 17.0522 824.042C114.403 655.426 186.697 493.663 224.891 368.45C243.991 305.836 254.546 252.415 255.469 211.871C255.93 191.599 253.981 174.599 249.522 161.296C245.066 148.002 238.126 138.461 228.634 132.981Z" stroke="#2B2C3B" stroke-width="2"/>
<path opacity="0.206897" d="M174.136 98.9803C164.202 94.348 152.406 94.1357 138.961 98.1108C125.507 102.088 110.463 110.243 94.1214 122.248C61.4387 146.259 23.7337 185.546 -16.6017 237.106C-97.2626 340.212 -188.305 492.215 -270.59 668.674C-352.874 845.134 -410.794 1012.58 -437.93 1140.65C-451.5 1204.69 -457.36 1258.83 -454.745 1299.3C-453.437 1319.53 -450.014 1336.3 -444.413 1349.16C-438.815 1362.01 -431.07 1370.91 -421.136 1375.55C-411.202 1380.18 -399.406 1380.39 -385.96 1376.42C-372.507 1372.44 -357.463 1364.28 -341.121 1352.28C-308.438 1328.27 -270.734 1288.98 -230.398 1237.42C-149.737 1134.31 -58.6947 982.312 23.5897 805.852C105.874 629.393 163.794 461.945 190.93 333.88C204.5 269.839 210.36 215.702 207.745 175.232C206.437 154.996 203.014 138.23 197.413 125.368C191.815 112.512 184.07 103.613 174.136 98.9803Z" stroke="#2B2C3B" stroke-width="2"/>
<path opacity="0.241379" d="M117.374 69.8356C107.074 66.0867 95.3043 66.9032 82.2562 72.0352C69.2002 77.1701 54.9245 86.6044 39.6913 99.9886C9.22559 126.756 -24.9117 169.18 -60.6 224.059C-131.968 333.803 -209.416 493.163 -276.008 676.122C-342.599 859.082 -385.705 1030.94 -401.576 1160.88C-409.513 1225.86 -410.632 1280.31 -404.5 1320.39C-401.434 1340.44 -396.562 1356.84 -389.861 1369.17C-383.165 1381.49 -374.673 1389.68 -364.373 1393.43C-354.074 1397.17 -342.304 1396.36 -329.256 1391.23C-316.2 1386.09 -301.924 1376.66 -286.691 1363.27C-256.225 1336.5 -222.088 1294.08 -186.4 1239.2C-115.032 1129.46 -37.5838 970.098 29.008 787.139C95.5999 604.179 138.705 432.32 154.577 302.377C162.513 237.398 163.632 182.956 157.5 142.867C154.434 122.823 149.562 106.42 142.862 94.0937C136.165 81.7753 127.674 73.5844 117.374 69.8356Z" stroke="#2B2C3B" stroke-width="2"/>
<path opacity="0.275862" d="M58.778 45.7328C48.1905 42.8959 36.5369 44.7351 23.9856 50.9848C11.4269 57.238 -1.97221 67.8807 -15.981 82.5416C-43.9978 111.863 -74.3077 157.101 -105.077 214.881C-166.608 330.428 -229.873 495.931 -280.265 683.998C-330.658 872.065 -358.621 1047.03 -363.106 1177.86C-365.349 1243.28 -361.719 1297.62 -352.116 1337.02C-347.315 1356.72 -341.032 1372.63 -333.283 1384.33C-325.538 1396.02 -316.365 1403.44 -305.778 1406.27C-295.19 1409.11 -283.537 1407.27 -270.985 1401.02C-258.427 1394.77 -245.028 1384.13 -231.019 1369.46C-203.002 1340.14 -172.692 1294.91 -141.923 1237.12C-80.3913 1121.58 -17.127 956.075 33.2655 768.008C83.658 579.941 111.621 404.979 116.106 274.147C118.35 208.723 114.719 154.391 105.117 114.99C100.315 95.2885 94.0326 79.3722 86.283 67.6773C78.5382 55.9894 69.3654 48.5697 58.778 45.7328Z" stroke="#2B2C3B" stroke-width="2"/>
<path opacity="0.310345" d="M-1.20526 26.8045C-11.9997 24.9011 -23.4487 27.749 -35.4074 35.0687C-47.3734 42.3928 -59.7939 54.1627 -72.4716 69.9888C-97.8263 101.64 -124.078 149.348 -149.695 209.59C-200.921 330.06 -249.52 500.447 -283.33 692.19C-317.139 883.934 -329.747 1060.67 -322.813 1191.39C-319.345 1256.76 -310.994 1310.57 -297.993 1348.99C-291.493 1368.19 -283.847 1383.5 -275.108 1394.48C-266.374 1405.45 -256.589 1412.04 -245.795 1413.94C-235 1415.84 -223.551 1413 -211.593 1405.68C-199.627 1398.35 -187.206 1386.58 -174.528 1370.76C-149.174 1339.1 -122.922 1291.4 -97.3054 1231.15C-46.0789 1110.69 2.52023 940.298 36.3298 748.555C70.1394 556.811 82.747 380.078 75.8127 249.353C72.3452 183.982 63.9935 130.173 50.9933 91.759C44.493 72.5513 36.847 57.2431 28.1077 46.2682C19.3737 35.2997 9.58914 28.7078 -1.20526 26.8045Z" stroke="#2B2C3B" stroke-width="2"/>
<path opacity="0.344828" d="M-62.1193 13.1541C-73.0385 12.1988 -84.1957 16.0337 -95.4711 24.3679C-106.753 32.707 -118.101 45.5146 -129.351 62.3854C-151.85 96.1261 -173.844 145.94 -194.113 208.186C-234.645 332.662 -268.209 506.636 -285.178 700.597C-302.147 894.557 -299.304 1071.72 -281.003 1201.34C-271.851 1266.16 -258.841 1319.04 -242.542 1356.17C-234.393 1374.74 -225.442 1389.32 -215.779 1399.49C-206.122 1409.66 -195.8 1415.37 -184.881 1416.33C-173.962 1417.28 -162.805 1413.45 -151.529 1405.12C-140.247 1396.78 -128.9 1383.97 -117.65 1367.1C-95.1502 1333.36 -73.1563 1283.54 -52.8877 1221.3C-12.3557 1096.82 21.2082 922.847 38.1776 728.887C55.147 534.926 52.3033 357.766 34.002 228.143C24.8502 163.324 11.8406 110.447 -4.45822 73.3121C-12.6078 54.744 -21.5589 40.1605 -31.2215 29.989C-40.8783 19.8235 -51.2001 14.1094 -62.1193 13.1541Z" stroke="#2B2C3B" stroke-width="2"/>
<path opacity="0.37931" d="M-123.5 4.84167C-134.461 4.84167 -145.242 9.6344 -155.748 18.9196C-166.26 28.2102 -176.448 41.9581 -186.185 59.7452C-205.658 95.3185 -223.227 146.86 -237.993 210.635C-267.522 338.17 -285.796 514.408 -285.796 709.109C-285.796 903.811 -267.522 1080.05 -237.993 1207.58C-223.227 1271.36 -205.658 1322.9 -186.185 1358.47C-176.448 1376.26 -166.26 1390.01 -155.748 1399.3C-145.242 1408.58 -134.461 1413.38 -123.5 1413.38C-112.539 1413.38 -101.759 1408.58 -91.2528 1399.3C-80.7404 1390.01 -70.5524 1376.26 -60.8155 1358.47C-41.3422 1322.9 -23.7735 1271.36 -9.00719 1207.58C20.5218 1080.05 38.7952 903.811 38.7952 709.109C38.7952 514.408 20.5218 338.17 -9.00719 210.635C-23.7735 146.86 -41.3422 95.3185 -60.8155 59.7452C-70.5524 41.9581 -80.7404 28.2102 -91.2528 18.9196C-101.759 9.6344 -112.539 4.84167 -123.5 4.84167Z" stroke="#2B2C3B" stroke-width="2"/>
<path opacity="0.413793" d="M-184.881 1.8889C-195.801 2.84421 -206.122 8.55828 -215.779 18.7238C-225.442 28.8953 -234.393 43.4788 -242.542 62.0469C-258.841 99.182 -271.851 152.058 -281.003 216.878C-299.304 346.501 -302.148 523.661 -285.178 717.621C-268.209 911.582 -234.645 1085.56 -194.113 1210.03C-173.844 1272.28 -151.851 1322.09 -129.351 1355.83C-118.101 1372.7 -106.753 1385.51 -95.4712 1393.85C-84.1959 1402.18 -73.0387 1406.02 -62.1195 1405.06C-51.2003 1404.11 -40.8785 1398.39 -31.2217 1388.23C-21.5591 1378.06 -12.608 1363.47 -4.4584 1344.91C11.8404 1307.77 24.8501 1254.89 34.0018 1190.07C52.3031 1060.45 55.1468 883.292 38.1774 689.331C21.2081 495.371 -12.3559 321.396 -52.8879 196.921C-73.1564 134.675 -95.1503 84.8609 -117.65 51.1202C-128.9 34.2494 -140.248 21.4417 -151.53 13.1027C-162.805 4.76849 -173.962 0.933593 -184.881 1.8889Z" stroke="#2B2C3B" stroke-width="2"/>
<path opacity="0.448276" d="M-245.795 4.27711C-256.59 6.18045 -266.374 12.7724 -275.108 23.7408C-283.848 34.7158 -291.494 50.024 -297.994 69.2317C-310.994 107.646 -319.346 161.455 -322.813 226.826C-329.748 357.551 -317.14 534.284 -283.33 726.027C-249.521 917.771 -200.922 1088.16 -149.695 1208.63C-124.079 1268.87 -97.8269 1316.58 -72.4722 1348.23C-59.7945 1364.05 -47.3739 1375.82 -35.408 1383.15C-23.4492 1390.47 -12.0002 1393.32 -1.2058 1391.41C9.5886 1389.51 19.3731 1382.92 28.1072 1371.95C36.8465 1360.97 44.4925 1345.67 50.9928 1326.46C63.993 1288.04 72.3447 1234.24 75.8122 1168.86C82.7464 1038.14 70.1388 861.406 36.3293 669.663C2.51968 477.919 -46.0794 307.532 -97.306 187.063C-122.922 126.82 -149.174 79.1128 -174.529 47.4615C-187.207 31.6354 -199.627 19.8655 -211.593 12.5414C-223.552 5.22166 -235.001 2.37377 -245.795 4.27711Z" stroke="#2B2C3B" stroke-width="2"/>
<path opacity="0.482759" d="M-305.778 11.9468C-316.366 14.7837 -325.538 22.2033 -333.283 33.8913C-341.033 45.5861 -347.315 61.5025 -352.117 81.2036C-361.72 120.605 -365.35 174.937 -363.107 240.361C-358.621 371.193 -330.658 546.155 -280.266 734.222C-229.873 922.289 -166.609 1087.79 -105.078 1203.34C-74.3082 1261.12 -43.9983 1306.36 -15.9815 1335.68C-1.97271 1350.34 11.4264 1360.98 23.9852 1367.24C36.5364 1373.48 48.19 1375.32 58.7775 1372.49C69.3649 1369.65 78.5377 1362.23 86.2825 1350.54C94.0321 1338.85 100.315 1322.93 105.116 1303.23C114.719 1263.83 118.349 1209.5 116.106 1144.07C111.62 1013.24 83.6575 838.279 33.265 650.212C-17.1275 462.145 -80.3918 296.642 -141.923 181.095C-172.693 123.315 -203.002 78.0766 -231.019 48.7556C-245.028 34.0946 -258.427 23.452 -270.986 17.1987C-283.537 10.9491 -295.191 9.10992 -305.778 11.9468Z" stroke="#2B2C3B" stroke-width="2"/>
<path opacity="0.517241" d="M-364.374 24.7901C-374.674 28.539 -383.165 36.7298 -389.862 49.0483C-396.563 61.3741 -401.434 77.7774 -404.5 97.8221C-410.633 137.91 -409.514 192.352 -401.577 257.332C-385.706 387.275 -342.6 559.134 -276.008 742.093C-209.416 925.053 -131.968 1084.41 -60.6007 1194.16C-24.9124 1249.03 9.22492 1291.46 39.6906 1318.23C54.9239 1331.61 69.1996 1341.05 82.2555 1346.18C95.3037 1351.31 107.073 1352.13 117.373 1348.38C127.673 1344.63 136.164 1336.44 142.861 1324.12C149.562 1311.8 154.433 1295.39 157.499 1275.35C163.632 1235.26 162.513 1180.82 154.576 1115.84C138.705 985.895 95.5992 814.036 29.0074 631.077C-37.5845 448.117 -115.033 288.758 -186.4 179.014C-222.089 124.135 -256.226 81.7108 -286.692 54.9431C-301.925 41.559 -316.201 32.1246 -329.256 26.9897C-342.305 21.8578 -354.074 21.0413 -364.374 24.7901Z" stroke="#2B2C3B" stroke-width="2"/>
<path opacity="0.551724" d="M-421.136 42.6723C-431.07 47.3046 -438.815 56.2043 -444.413 69.0596C-450.014 81.9225 -453.437 98.688 -454.745 118.924C-457.36 159.394 -451.5 213.531 -437.93 277.571C-410.794 405.637 -352.874 573.085 -270.59 749.544C-188.305 926.004 -97.2628 1078.01 -16.602 1181.11C23.7335 1232.67 61.4384 1271.96 94.1212 1295.97C110.463 1307.98 125.507 1316.13 138.96 1320.11C152.406 1324.08 164.202 1323.87 174.136 1319.24C184.07 1314.61 191.815 1305.71 197.413 1292.85C203.014 1279.99 206.437 1263.22 207.745 1242.99C210.36 1202.52 204.5 1148.38 190.93 1084.34C163.794 956.274 105.874 788.826 23.5895 612.366C-58.6949 435.907 -149.737 283.904 -230.398 180.798C-270.734 129.238 -308.439 89.9506 -341.121 65.9401C-357.463 53.9345 -372.507 45.7803 -385.961 41.8028C-399.406 37.8276 -411.202 38.04 -421.136 42.6723Z" stroke="#2B2C3B" stroke-width="2"/>
<path opacity="0.586207" d="M-475.634 65.4104C-485.126 70.8908 -492.066 80.4317 -496.522 93.7259C-500.981 107.028 -502.93 124.028 -502.469 144.301C-501.546 184.845 -490.991 238.265 -471.891 300.879C-433.697 426.092 -361.403 587.855 -264.052 756.472C-166.701 925.088 -62.7574 1068.58 26.5828 1164.26C71.2585 1212.11 112.244 1247.96 146.895 1269.03C164.221 1279.57 179.918 1286.38 193.667 1289.17C207.409 1291.96 219.141 1290.72 228.634 1285.24C238.126 1279.76 245.066 1270.22 249.522 1256.92C253.98 1243.62 255.929 1226.62 255.468 1206.35C254.546 1165.8 243.99 1112.38 224.891 1049.77C186.696 924.555 114.403 762.793 17.0518 594.176C-80.299 425.56 -184.243 282.07 -273.583 186.386C-318.259 138.538 -359.244 102.687 -393.895 81.6159C-411.221 71.0802 -426.919 64.2682 -440.668 61.4784C-454.409 58.6903 -466.141 59.9299 -475.634 65.4104Z" stroke="#2B2C3B" stroke-width="2"/>
<path opacity="0.62069" d="M-527.451 92.792C-536.43 99.079 -542.512 109.188 -545.792 122.82C-549.074 136.46 -549.534 153.566 -547.308 173.721C-542.856 214.03 -527.684 266.327 -503.2 327.039C-454.238 448.446 -368.121 603.293 -256.444 762.783C-144.768 922.273 -28.7138 1056.16 68.6258 1143.69C117.302 1187.46 161.256 1219.61 197.612 1237.58C215.79 1246.56 232.021 1251.98 245.961 1253.56C259.893 1255.14 271.473 1252.88 280.451 1246.6C289.43 1240.31 295.512 1230.2 298.792 1216.57C302.075 1202.93 302.535 1185.82 300.308 1165.67C295.856 1125.36 280.684 1073.06 256.2 1012.35C207.238 890.942 121.121 736.095 9.4449 576.605C-102.231 417.115 -218.286 283.231 -315.625 195.698C-364.301 151.926 -408.256 119.782 -444.611 101.812C-462.789 92.8264 -479.021 87.4084 -492.961 85.8275C-506.892 84.2476 -518.472 86.5051 -527.451 92.792Z" stroke="#2B2C3B" stroke-width="2"/>
<path opacity="0.655172" d="M-576.194 124.561C-584.591 131.607 -589.769 142.208 -591.848 156.074C-593.929 169.948 -592.897 187.028 -588.922 206.913C-580.974 246.681 -561.302 297.457 -531.62 355.803C-472.262 472.481 -372.977 619.233 -247.826 768.383C-122.674 917.533 4.60772 1040.79 109.206 1119.51C161.512 1158.87 208.1 1187.06 245.884 1201.8C264.776 1209.16 281.417 1213.15 295.442 1213.51C309.459 1213.87 320.798 1210.61 329.194 1203.56C337.591 1196.52 342.769 1185.91 344.848 1172.05C346.929 1158.17 345.897 1141.09 341.922 1121.21C333.974 1081.44 314.302 1030.67 284.62 972.32C225.262 855.642 125.977 708.89 0.825505 559.74C-124.326 410.59 -251.608 287.33 -356.206 208.614C-408.512 169.25 -455.1 141.06 -492.884 126.327C-511.776 118.96 -528.417 114.977 -542.442 114.617C-556.459 114.258 -567.798 117.516 -576.194 124.561Z" stroke="#2B2C3B" stroke-width="2"/>
<path opacity="0.689655" d="M-621.492 160.439C-629.243 168.189 -633.477 179.201 -634.34 193.196C-635.204 207.199 -632.687 224.124 -626.995 243.586C-615.61 282.51 -591.588 331.378 -556.933 386.916C-487.633 497.976 -375.935 635.516 -238.26 773.191C-100.586 910.866 36.9545 1022.56 148.015 1091.86C203.553 1126.52 252.421 1150.54 291.345 1161.93C310.807 1167.62 327.732 1170.14 341.735 1169.27C355.73 1168.41 366.742 1164.17 374.492 1156.42C382.243 1148.67 386.477 1137.66 387.34 1123.67C388.204 1109.66 385.687 1092.74 379.994 1073.28C368.61 1034.35 344.588 985.484 309.933 929.946C240.632 818.886 128.935 681.346 -8.73987 543.671C-146.415 405.996 -283.955 294.298 -395.015 224.998C-450.553 190.343 -499.421 166.321 -538.345 154.937C-557.807 149.244 -574.733 146.727 -588.735 147.591C-602.73 148.454 -613.742 152.688 -621.492 160.439Z" stroke="#2B2C3B" stroke-width="2"/>
<path opacity="0.724138" d="M-663.001 200.106C-670.046 208.502 -673.304 219.842 -672.945 233.858C-672.585 247.883 -668.602 264.524 -661.235 283.417C-646.502 321.2 -618.311 367.789 -578.948 420.094C-500.232 524.693 -376.972 651.974 -227.822 777.126C-78.672 902.278 68.0797 1001.56 184.758 1060.92C243.104 1090.6 293.88 1110.27 333.648 1118.22C353.533 1122.2 370.613 1123.23 384.487 1121.15C398.353 1119.07 408.954 1113.89 416 1105.49C423.045 1097.1 426.303 1085.76 425.944 1071.74C425.584 1057.72 421.601 1041.08 414.234 1022.18C399.501 984.401 371.31 937.812 331.947 885.506C253.231 780.908 129.971 653.626 -19.179 528.475C-168.329 403.323 -315.081 304.038 -431.759 244.681C-490.105 214.998 -540.881 195.327 -580.649 187.378C-600.534 183.404 -617.614 182.371 -631.488 184.452C-645.354 186.532 -655.955 191.709 -663.001 200.106Z" stroke="#2B2C3B" stroke-width="2"/>
<path opacity="0.758621" d="M-700.402 243.218C-706.689 252.196 -708.947 263.776 -707.367 277.708C-705.786 291.648 -700.368 307.879 -691.382 326.057C-673.412 362.413 -641.269 406.367 -597.497 455.043C-509.963 552.383 -376.079 668.437 -216.589 780.113C-57.099 891.79 97.7476 977.907 219.155 1026.87C279.866 1051.35 332.164 1066.52 372.473 1070.98C392.628 1073.2 409.733 1072.74 423.374 1069.46C437.006 1066.18 447.115 1060.1 453.402 1051.12C459.689 1042.14 461.946 1030.56 460.366 1016.63C458.786 1002.69 453.367 986.458 444.382 968.28C426.412 931.925 394.268 887.97 350.496 839.294C262.963 741.955 129.079 625.9 -30.4114 514.224C-189.902 402.548 -344.748 316.431 -466.156 267.469C-526.867 242.984 -579.164 227.813 -619.473 223.361C-639.629 221.134 -656.734 221.594 -670.374 224.877C-684.006 228.157 -694.115 234.239 -700.402 243.218Z" stroke="#2B2C3B" stroke-width="2"/>
<path opacity="0.793103" d="M-733.414 289.405C-738.894 298.897 -740.134 310.63 -737.346 324.371C-734.556 338.12 -727.744 353.817 -717.208 371.143C-696.137 405.794 -660.286 446.779 -612.438 491.455C-516.754 580.795 -373.264 684.739 -204.648 782.09C-36.0315 879.441 125.731 951.735 250.944 989.929C313.558 1009.03 366.979 1019.58 407.523 1020.51C427.795 1020.97 444.796 1019.02 458.098 1014.56C471.392 1010.1 480.933 1003.16 486.413 993.672C491.894 984.179 493.133 972.447 490.345 958.706C487.555 944.957 480.743 929.259 470.208 911.933C449.137 877.282 413.285 836.297 365.437 791.621C269.754 702.281 126.264 598.337 -42.3525 500.986C-210.969 403.635 -372.732 331.342 -497.945 293.147C-560.559 274.048 -613.979 263.492 -654.523 262.57C-674.796 262.109 -691.796 264.058 -705.098 268.516C-718.392 272.972 -727.933 279.912 -733.414 289.405Z" stroke="#2B2C3B" stroke-width="2"/>
<path opacity="0.827586" d="M-761.783 338.271C-766.416 348.204 -766.628 360 -762.653 373.446C-758.675 386.9 -750.521 401.944 -738.516 418.285C-714.505 450.968 -675.218 488.673 -623.658 529.009C-520.552 609.669 -368.549 700.712 -192.089 782.996C-15.63 865.281 151.818 923.201 279.883 950.337C343.924 963.907 398.061 969.766 438.531 967.151C458.767 965.844 475.532 962.421 488.395 956.82C501.251 951.222 510.15 943.477 514.783 933.543C519.415 923.609 519.627 911.813 515.652 898.367C511.675 884.914 503.52 869.87 491.515 853.528C467.504 820.845 428.217 783.14 376.657 742.805C273.551 662.144 121.548 571.102 -54.9114 488.817C-231.371 406.533 -398.819 348.613 -526.884 321.477C-590.925 307.907 -645.062 302.047 -685.532 304.662C-705.768 305.97 -722.533 309.393 -735.396 314.994C-748.251 320.592 -757.151 328.337 -761.783 338.271Z" stroke="#2B2C3B" stroke-width="2"/>
<path opacity="0.862069" d="M-785.294 389.403C-789.043 399.703 -788.227 411.472 -783.095 424.52C-777.96 437.576 -768.526 451.852 -755.141 467.085C-728.374 497.551 -685.95 531.688 -631.071 567.377C-521.327 638.744 -361.967 716.192 -179.008 782.784C3.95166 849.376 175.811 892.482 305.754 908.353C370.733 916.289 425.175 917.409 465.263 911.276C485.308 908.21 501.711 903.339 514.037 896.638C526.356 889.941 534.546 881.45 538.295 871.15C542.044 860.85 541.228 849.081 536.096 836.032C530.961 822.976 521.526 808.701 508.142 793.467C481.375 763.002 438.95 728.864 384.072 693.176C274.328 621.809 114.968 544.36 -67.9913 477.769C-250.951 411.177 -422.81 368.071 -552.753 352.2C-617.732 344.263 -672.174 343.144 -712.263 349.276C-732.307 352.343 -748.71 357.214 -761.036 363.915C-773.355 370.612 -781.546 379.103 -785.294 389.403Z" stroke="#2B2C3B" stroke-width="2"/>
<path opacity="0.896552" d="M-803.77 442.368C-806.607 452.955 -804.768 464.609 -798.518 477.16C-792.265 489.719 -781.622 503.118 -766.961 517.127C-737.64 545.144 -692.402 575.454 -634.622 606.223C-519.075 667.754 -353.572 731.019 -165.505 781.411C22.562 831.804 197.524 859.767 328.356 864.252C393.78 866.495 448.112 862.865 487.513 853.262C507.214 848.461 523.131 842.178 534.826 834.429C546.514 826.684 553.933 817.511 556.77 806.924C559.607 796.336 557.768 784.683 551.518 772.131C545.265 759.573 534.622 746.173 519.961 732.165C490.64 704.148 445.402 673.838 387.622 643.068C272.075 581.537 106.572 518.273 -81.4948 467.88C-269.562 417.488 -444.524 389.525 -575.356 385.039C-640.78 382.796 -695.112 386.426 -734.513 396.029C-754.214 400.831 -770.131 407.113 -781.826 414.863C-793.514 422.608 -800.933 431.781 -803.77 442.368Z" stroke="#2B2C3B" stroke-width="2"/>
<path opacity="0.931035" d="M-817.068 496.72C-818.971 507.514 -816.123 518.963 -808.804 530.922C-801.48 542.888 -789.71 555.308 -773.884 567.986C-742.232 593.341 -694.525 619.593 -634.282 645.209C-513.813 696.436 -343.426 745.035 -151.682 778.844C40.0613 812.654 216.795 825.261 347.519 818.327C412.89 814.86 466.699 806.508 505.113 793.508C524.321 787.007 539.629 779.361 550.604 770.622C561.573 761.888 568.165 752.104 570.068 741.309C571.971 730.515 569.124 719.066 561.804 707.107C554.48 695.141 542.71 682.72 526.884 670.043C495.232 644.688 447.525 618.436 387.282 592.82C266.813 541.593 96.4259 492.994 -95.3177 459.185C-287.061 425.375 -463.795 412.767 -594.519 419.702C-659.89 423.169 -713.699 431.521 -752.113 444.521C-771.321 451.021 -786.629 458.667 -797.604 467.407C-808.573 476.141 -815.165 485.925 -817.068 496.72Z" stroke="#2B2C3B" stroke-width="2"/>
<path opacity="0.965517" d="M-825.087 552.004C-826.042 562.924 -822.207 574.081 -813.873 585.356C-805.534 596.638 -792.726 607.986 -775.856 619.236C-742.115 641.735 -692.301 663.729 -630.055 683.998C-505.579 724.53 -331.605 758.094 -137.644 775.063C56.3161 792.033 233.476 789.189 363.099 770.888C427.918 761.736 480.795 748.726 517.93 732.427C536.498 724.278 551.082 715.327 561.253 705.664C571.419 696.007 577.133 685.686 578.088 674.766C579.043 663.847 575.208 652.69 566.874 641.415C558.535 630.133 545.727 618.785 528.857 607.535C495.116 585.035 445.302 563.041 383.056 542.773C258.58 502.241 84.6061 468.677 -109.355 451.708C-303.315 434.738 -480.475 437.582 -610.098 455.883C-674.917 465.035 -727.794 478.045 -764.929 494.343C-783.497 502.493 -798.081 511.444 -808.252 521.107C-818.418 530.763 -824.132 541.085 -825.087 552.004Z" stroke="#2B2C3B" stroke-width="2"/>
<path d="M-827.768 607.753C-827.768 618.714 -822.975 629.495 -813.69 640.001C-804.399 650.513 -790.651 660.701 -772.864 670.438C-737.291 689.912 -685.75 707.48 -621.974 722.247C-494.439 751.776 -318.202 770.049 -123.5 770.049C71.2012 770.049 247.439 751.776 374.973 722.247C438.749 707.48 490.29 689.912 525.864 670.438C543.651 660.701 557.399 650.513 566.689 640.001C575.974 629.495 580.767 618.714 580.767 607.753C580.767 596.793 575.974 586.012 566.689 575.506C557.399 564.994 543.651 554.806 525.864 545.069C490.29 525.595 438.749 508.027 374.973 493.26C247.439 463.731 71.2012 445.458 -123.5 445.458C-318.202 445.458 -494.439 463.731 -621.974 493.26C-685.75 508.027 -737.291 525.595 -772.864 545.069C-790.651 554.806 -804.399 564.994 -813.69 575.506C-822.975 586.012 -827.768 596.793 -827.768 607.753Z" stroke="#2B2C3B" stroke-width="2"/>
</g>
</svg>
