<svg width="1082" height="1036" viewBox="0 0 1082 1036" fill="none" xmlns="http://www.w3.org/2000/svg">
<g opacity="0.5">
<path opacity="0.0344828" d="M103.34 729.774C110.514 732.385 118.734 731.826 127.886 728.226C137.046 724.623 147.08 717.996 157.804 708.574C179.25 689.731 203.296 659.851 228.447 621.177C278.739 543.841 333.324 431.529 380.259 302.575C427.195 173.62 457.573 52.4978 468.758 -39.0717C474.351 -84.8646 475.137 -123.211 470.82 -151.431C468.661 -165.541 465.235 -177.068 460.533 -185.715C455.836 -194.356 449.899 -200.068 442.725 -202.679C435.551 -205.29 427.332 -204.731 418.18 -201.131C409.02 -197.528 398.986 -190.901 388.262 -181.479C366.816 -162.636 342.769 -132.756 317.619 -94.0819C267.327 -16.7464 212.742 95.5655 165.806 224.52C118.871 353.475 88.4921 474.597 77.3078 566.167C71.7147 611.96 70.929 650.306 75.2458 678.526C77.4042 692.636 80.8308 704.163 85.5321 712.81C90.2293 721.451 96.1664 727.163 103.34 729.774Z" stroke="#2B2C3B" stroke-width="2"/>
<path opacity="0.0689655" d="M146.604 746.226C153.978 748.202 162.118 746.928 170.921 742.544C179.733 738.157 189.151 730.681 199.012 720.36C218.735 699.719 240.086 667.858 261.77 627.138C305.13 545.714 349.718 429.072 385.236 296.517C420.754 163.962 440.461 40.6534 443.622 -51.5424C445.202 -97.6486 442.643 -135.917 435.883 -163.654C432.503 -177.522 428.085 -188.706 422.648 -196.911C417.215 -205.11 410.803 -210.282 403.429 -212.258C396.055 -214.234 387.915 -212.96 379.112 -208.577C370.3 -204.19 360.882 -196.713 351.021 -186.393C331.298 -165.752 309.947 -133.89 288.263 -93.1706C244.903 -11.7462 200.315 104.896 164.797 237.45C129.279 370.005 109.572 493.314 106.411 585.51C104.831 631.616 107.39 669.885 114.15 697.621C117.53 711.49 121.948 722.674 127.385 730.879C132.818 739.077 139.23 744.25 146.604 746.226Z" stroke="#2B2C3B" stroke-width="2"/>
<path opacity="0.103448" d="M190.846 759.031C198.365 760.357 206.362 758.379 214.75 753.245C223.146 748.106 231.876 739.838 240.801 728.697C258.649 706.416 277.142 672.814 295.195 630.36C331.293 545.466 365.546 425.382 389.376 290.236C413.206 155.09 422.09 30.5329 417.204 -61.5876C414.76 -107.656 408.875 -145.556 399.723 -172.598C395.147 -186.119 389.771 -196.875 383.64 -204.575C377.514 -212.269 370.675 -216.863 363.157 -218.189C355.638 -219.514 347.641 -217.536 339.253 -212.402C330.857 -207.263 322.127 -198.995 313.202 -187.854C295.354 -165.573 276.861 -131.971 258.808 -89.517C222.709 -4.6233 188.457 115.461 164.627 250.607C140.797 385.753 131.913 510.31 136.799 602.43C139.243 648.499 145.128 686.399 154.279 713.441C158.855 726.962 164.231 737.718 170.363 745.418C176.489 753.112 183.328 757.706 190.846 759.031Z" stroke="#2B2C3B" stroke-width="2"/>
<path opacity="0.137931" d="M235.744 768.119C243.349 768.784 251.144 766.117 259.053 760.271C266.968 754.42 274.945 745.422 282.865 733.546C298.703 709.794 314.197 674.709 328.481 630.842C357.043 543.126 380.699 420.513 392.66 283.804C404.62 147.096 402.615 22.2383 389.718 -69.1058C383.269 -114.786 374.103 -152.029 362.629 -178.17C356.892 -191.241 350.599 -201.488 343.82 -208.624C337.047 -215.754 329.833 -219.735 322.228 -220.4C314.623 -221.066 306.828 -218.398 298.919 -212.552C291.004 -206.702 283.027 -197.704 275.107 -185.827C259.269 -162.075 243.775 -126.99 229.491 -83.1238C200.929 4.59301 177.273 127.205 165.312 263.914C153.352 400.623 155.357 525.48 168.254 616.824C174.703 662.505 183.869 699.747 195.343 725.889C201.08 738.96 207.373 749.206 214.152 756.343C220.926 763.473 228.139 767.454 235.744 768.119Z" stroke="#2B2C3B" stroke-width="2"/>
<path opacity="0.172414" d="M280.97 773.444C288.605 773.444 296.137 770.107 303.506 763.594C310.882 757.076 318.044 747.417 324.898 734.895C338.607 709.854 350.984 673.551 361.39 628.607C382.199 538.735 395.078 414.527 395.078 277.296C395.078 140.065 382.199 15.8578 361.39 -74.0147C350.984 -118.959 338.607 -155.261 324.898 -180.303C318.044 -192.824 310.882 -202.484 303.506 -209.002C296.137 -215.515 288.605 -218.851 280.97 -218.851C273.336 -218.851 265.803 -215.515 258.434 -209.002C251.059 -202.484 243.897 -192.824 237.042 -180.303C223.334 -155.261 210.957 -118.959 200.551 -74.0147C179.742 15.8578 166.862 140.065 166.862 277.296C166.862 414.527 179.742 538.735 200.551 628.607C210.957 673.551 223.334 709.854 237.042 734.895C243.897 747.417 251.059 757.076 258.434 763.594C265.803 770.107 273.336 773.444 280.97 773.444Z" stroke="#2B2C3B" stroke-width="2"/>
<path opacity="0.206897" d="M326.197 774.994C333.802 774.328 341.016 770.348 347.789 763.217C354.568 756.081 360.861 745.834 366.598 732.763C378.072 706.622 387.238 669.379 393.687 623.699C406.584 532.355 408.589 407.497 396.629 270.789C384.669 134.08 361.012 11.4676 332.45 -76.2493C318.166 -120.116 302.672 -155.201 286.834 -178.953C278.914 -190.829 270.937 -199.827 263.022 -205.678C255.113 -211.524 247.318 -214.191 239.713 -213.526C232.108 -212.861 224.895 -208.88 218.121 -201.75C211.342 -194.613 205.049 -184.367 199.312 -171.295C187.838 -145.154 178.672 -107.911 172.223 -62.2313C159.326 29.1128 157.321 153.97 169.281 290.679C181.242 427.388 204.898 550 233.46 637.717C247.744 681.583 263.238 716.668 279.077 740.42C286.996 752.297 294.973 761.295 302.889 767.146C310.797 772.991 318.592 775.659 326.197 774.994Z" stroke="#2B2C3B" stroke-width="2"/>
<path opacity="0.241379" d="M371.095 772.783C378.614 771.457 385.452 766.863 391.579 759.169C397.71 751.469 403.086 740.713 407.662 727.192C416.814 700.15 422.699 662.25 425.142 616.182C430.029 524.061 421.145 399.504 397.315 264.358C373.485 129.212 339.232 9.12776 303.133 -75.7659C285.081 -118.22 266.588 -151.822 248.74 -174.103C239.815 -185.244 231.084 -193.512 222.689 -198.651C214.301 -203.785 206.303 -205.763 198.785 -204.438C191.267 -203.112 184.428 -198.518 178.302 -190.824C172.17 -183.124 166.794 -172.368 162.218 -158.847C153.067 -131.805 147.182 -93.905 144.738 -47.8365C139.852 44.284 148.736 168.841 172.566 303.987C196.396 439.133 230.648 559.217 266.747 644.111C284.8 686.565 303.292 720.167 321.141 742.448C330.065 753.589 338.796 761.857 347.191 766.996C355.58 772.13 363.577 774.108 371.095 772.783Z" stroke="#2B2C3B" stroke-width="2"/>
<path opacity="0.275862" d="M415.336 766.85C422.71 764.874 429.123 759.701 434.555 751.503C439.992 743.298 444.41 732.114 447.79 718.245C454.55 690.509 457.11 652.24 455.529 606.134C452.368 513.938 432.662 390.629 397.144 258.074C361.626 125.52 317.037 8.8778 273.677 -72.5466C251.993 -113.266 230.642 -145.128 210.92 -165.769C201.058 -176.089 191.64 -183.566 182.829 -187.953C174.025 -192.336 165.885 -193.61 158.511 -191.634C151.137 -189.658 144.725 -184.485 139.292 -176.287C133.855 -168.082 129.437 -156.898 126.057 -143.03C119.297 -115.293 116.738 -77.0246 118.319 -30.9184C121.48 61.2774 141.186 184.586 176.704 317.141C212.222 449.696 256.81 566.338 300.171 647.762C321.855 688.482 343.205 720.343 362.928 740.984C372.789 751.305 382.208 758.781 391.019 763.168C399.823 767.552 407.962 768.826 415.336 766.85Z" stroke="#2B2C3B" stroke-width="2"/>
<path opacity="0.310345" d="M458.601 757.271C465.775 754.66 471.712 748.948 476.409 740.308C481.11 731.66 484.537 720.134 486.695 706.023C491.012 677.803 490.227 639.457 484.633 593.664C473.449 502.095 443.071 380.973 396.135 252.018C349.199 123.063 294.615 10.7512 244.323 -66.5843C219.172 -105.259 195.126 -135.139 173.679 -153.982C162.956 -163.404 152.922 -170.031 143.762 -173.633C134.609 -177.233 126.39 -177.792 119.216 -175.181C112.042 -172.57 106.105 -166.858 101.408 -158.218C96.7065 -149.57 93.2799 -138.044 91.1214 -123.933C86.8047 -95.7131 87.5903 -57.367 93.1835 -11.5741C104.368 79.9954 134.746 201.118 181.682 330.072C228.618 459.027 283.202 571.339 333.494 648.674C358.645 687.349 382.691 717.229 404.138 736.072C414.861 745.494 424.895 752.121 434.055 755.724C443.207 759.323 451.427 759.882 458.601 757.271Z" stroke="#2B2C3B" stroke-width="2"/>
<path opacity="0.344828" d="M500.574 744.145C507.493 740.919 512.91 734.711 516.836 725.694C520.766 716.669 523.175 704.888 524.095 690.643C525.936 662.154 521.811 624.023 512.248 578.892C493.126 488.645 452.306 370.632 394.31 246.258C336.314 121.885 272.148 14.7578 215.307 -57.9001C186.882 -94.2356 160.323 -121.906 137.316 -138.808C125.812 -147.26 115.238 -152.987 105.799 -155.777C96.3681 -158.566 88.131 -158.406 81.212 -155.18C74.293 -151.954 68.8763 -145.746 64.95 -136.729C61.0204 -127.705 58.6114 -115.923 57.6909 -101.678C55.8502 -73.1895 59.9749 -35.0579 69.5379 10.0733C88.6605 100.32 129.48 218.333 187.476 342.707C245.472 467.08 309.638 574.207 366.479 646.865C394.904 683.2 421.463 710.871 444.47 727.773C455.974 736.224 466.548 741.952 475.987 744.742C485.418 747.531 493.655 747.371 500.574 744.145Z" stroke="#2B2C3B" stroke-width="2"/>
<path opacity="0.37931" d="M540.952 727.598C547.564 723.78 552.419 717.124 555.544 707.8C558.672 698.467 560.046 686.52 559.721 672.249C559.072 643.709 551.639 606.081 538.179 561.956C511.264 473.719 460.314 359.712 391.699 240.867C323.084 122.022 249.825 20.8946 186.868 -46.5329C155.384 -80.2526 126.514 -105.503 102.122 -120.335C89.925 -127.752 78.8927 -132.536 69.2462 -134.493C59.608 -136.449 51.4161 -135.573 44.8047 -131.755C38.1932 -127.938 33.3381 -121.282 30.2126 -111.957C27.0845 -102.625 25.7115 -90.6784 26.0361 -76.4074C26.6853 -47.8664 34.1177 -10.2394 47.5777 33.8866C74.493 122.123 125.443 236.13 194.058 354.975C262.673 473.82 335.932 574.948 398.889 642.375C430.373 676.095 459.243 701.345 483.635 716.178C495.832 723.594 506.864 728.378 516.511 730.336C526.149 732.291 534.341 731.415 540.952 727.598Z" stroke="#2B2C3B" stroke-width="2"/>
<path opacity="0.413793" d="M579.442 707.78C585.696 703.401 589.952 696.347 592.253 686.785C594.556 677.216 594.883 665.195 593.315 651.007C590.181 622.631 579.498 585.795 562.243 543.01C527.74 457.455 467.048 348.323 388.335 235.91C309.623 123.497 227.83 29.1395 159.236 -32.5443C124.932 -63.3917 93.9718 -86.0296 68.3793 -98.6799C55.5825 -105.005 44.1753 -108.81 34.3949 -109.919C24.6229 -111.027 16.5386 -109.44 10.285 -105.061C4.03134 -100.682 -0.22511 -93.6282 -2.52599 -84.0665C-4.82884 -74.4966 -5.15546 -62.4761 -3.58828 -48.2877C-0.454032 -19.9119 10.2295 16.9242 27.4842 59.7091C61.9873 145.264 122.679 254.396 201.392 366.809C280.104 479.222 361.897 573.579 430.492 635.263C464.795 666.111 495.755 688.749 521.348 701.399C534.145 707.724 545.552 711.529 555.332 712.638C565.104 713.746 573.189 712.159 579.442 707.78Z" stroke="#2B2C3B" stroke-width="2"/>
<path opacity="0.448276" d="M615.766 684.868C621.614 679.961 625.24 672.563 626.699 662.837C628.159 653.103 627.436 641.1 624.639 627.102C619.043 599.107 605.19 563.343 584.272 522.224C542.443 440.002 472.471 336.575 384.26 231.45C296.05 126.325 206.345 39.4553 132.635 -16.0153C95.7739 -43.7556 62.9581 -63.609 36.3604 -73.9806C23.061 -79.1666 11.3656 -81.9623 1.52583 -82.2147C-8.3056 -82.467 -16.2208 -80.1813 -22.069 -75.2741C-27.9172 -70.3668 -31.5426 -62.9688 -33.0014 -53.243C-34.4614 -43.5088 -33.7392 -31.5056 -30.9413 -17.5078C-25.3459 10.4869 -11.4925 46.2517 9.42541 87.3699C51.2539 169.592 121.227 273.019 209.437 378.144C297.647 483.269 387.353 570.139 461.062 625.61C497.923 653.35 530.739 673.203 557.337 683.575C570.636 688.761 582.332 691.556 592.171 691.809C602.003 692.061 609.918 689.775 615.766 684.868Z" stroke="#2B2C3B" stroke-width="2"/>
<path opacity="0.482759" d="M649.661 659.063C655.06 653.664 658.027 645.978 658.632 636.162C659.238 626.338 657.473 614.443 653.465 600.743C645.451 573.342 628.534 538.921 604.112 499.782C555.276 421.519 476.555 324.583 379.519 227.547C282.482 130.51 185.546 51.789 107.283 2.95365C68.1441 -21.4684 33.7228 -38.3862 6.32239 -46.4002C-7.37832 -50.4073 -19.2729 -52.173 -29.0973 -51.5669C-38.9133 -50.9614 -46.5991 -47.9945 -51.9974 -42.5962C-57.3956 -37.198 -60.3625 -29.5121 -60.9681 -19.6961C-61.5741 -9.87176 -59.8084 2.02278 -55.8013 15.7235C-47.7873 43.1239 -30.8695 77.5452 -6.44745 116.684C42.3879 194.947 121.109 291.883 218.145 388.92C315.182 485.957 412.118 564.677 490.381 613.513C529.52 637.935 563.941 654.852 591.342 662.866C605.042 666.874 616.937 668.639 626.761 668.033C636.577 667.428 644.263 664.461 649.661 659.063Z" stroke="#2B2C3B" stroke-width="2"/>
<path opacity="0.517241" d="M680.888 630.589C685.796 624.741 688.081 616.825 687.829 606.994C687.577 597.154 684.781 585.459 679.595 572.159C669.223 545.562 649.37 512.746 621.63 475.885C566.159 402.175 479.289 312.47 374.164 224.259C269.04 136.049 165.612 66.0765 83.3901 24.248C42.2718 3.33009 6.50699 -10.5233 -21.4877 -16.1187C-35.4855 -18.9165 -47.4887 -19.6388 -57.2228 -18.1788C-66.9487 -16.72 -74.3467 -13.0946 -79.2539 -7.24637C-84.1612 -1.39816 -86.4469 6.51702 -86.1946 16.3484C-85.9421 26.1883 -83.1465 37.8837 -77.9605 51.183C-67.5889 77.7807 -47.7354 110.597 -19.9952 147.458C35.4755 221.167 122.345 310.873 227.47 399.083C332.595 487.293 436.022 557.266 518.244 599.094C559.363 620.012 595.127 633.866 623.122 639.461C637.12 642.259 649.123 642.981 658.857 641.521C668.583 640.062 675.981 636.437 680.888 630.589Z" stroke="#2B2C3B" stroke-width="2"/>
<path opacity="0.551724" d="M709.222 599.687C713.6 593.433 715.188 585.349 714.079 575.577C712.97 565.796 709.166 554.389 702.841 541.592C690.19 516 667.552 485.039 636.705 450.736C575.021 382.142 480.664 300.348 368.251 221.636C255.838 142.924 146.705 82.2317 61.1508 47.7285C18.3658 30.4739 -18.4703 19.7903 -46.8461 16.6561C-61.0345 15.0889 -73.0549 15.4155 -82.6248 17.7184C-92.1865 20.0193 -99.2404 24.2757 -103.619 30.5293C-107.998 36.783 -109.585 44.8673 -108.477 54.6393C-107.368 64.4197 -103.564 75.8269 -97.2383 88.6236C-84.588 114.216 -61.95 145.177 -31.1026 179.48C30.5811 248.074 124.939 329.867 237.351 408.58C349.764 487.292 458.897 547.984 544.452 582.487C587.236 599.742 624.073 610.426 652.448 613.56C666.637 615.127 678.657 614.8 688.227 612.498C697.789 610.197 704.843 605.94 709.222 599.687Z" stroke="#2B2C3B" stroke-width="2"/>
<path opacity="0.586207" d="M734.463 566.62C738.28 560.008 739.156 551.816 737.201 542.178C735.243 532.531 730.459 521.499 723.043 509.302C708.21 484.91 682.96 456.04 649.24 424.556C581.813 361.599 480.686 288.341 361.84 219.725C242.995 151.11 128.988 100.16 40.7518 73.2449C-3.3742 59.7849 -41.0013 52.3525 -69.5422 51.7033C-83.8132 51.3787 -95.7595 52.7517 -105.092 55.8799C-114.417 59.0053 -121.073 63.8604 -124.89 70.4719C-128.707 77.0833 -129.584 85.2752 -127.628 94.9134C-125.671 104.56 -120.887 115.592 -113.47 127.789C-98.6376 152.182 -73.3874 181.051 -39.6677 212.536C27.7597 275.493 128.887 348.751 247.732 417.366C366.578 485.982 480.584 536.931 568.821 563.846C612.947 577.306 650.574 584.739 679.115 585.388C693.386 585.713 705.332 584.34 714.665 581.212C723.99 578.086 730.646 573.231 734.463 566.62Z" stroke="#2B2C3B" stroke-width="2"/>
<path opacity="0.62069" d="M756.433 531.664C759.659 524.745 759.818 516.508 757.03 507.076C754.239 497.637 748.512 487.064 740.061 475.56C723.158 452.553 695.488 425.994 659.153 397.568C586.495 340.727 479.368 276.562 354.994 218.566C230.621 160.569 112.607 119.75 22.3609 100.627C-22.7703 91.0645 -60.9019 86.9397 -89.3909 88.7805C-103.636 89.7009 -115.417 92.1099 -124.442 96.0396C-133.459 99.9659 -139.666 105.383 -142.892 112.302C-146.119 119.221 -146.278 127.458 -143.49 136.889C-140.699 146.328 -134.972 156.901 -126.52 168.405C-109.618 191.412 -81.948 217.971 -45.6125 246.397C27.0454 303.238 134.173 367.403 258.546 425.4C382.919 483.396 500.933 524.215 591.179 543.338C636.31 552.901 674.442 557.026 702.931 555.185C717.176 554.264 728.957 551.855 737.982 547.926C746.999 543.999 753.206 538.583 756.433 531.664Z" stroke="#2B2C3B" stroke-width="2"/>
<path opacity="0.655172" d="M774.982 495.114C777.593 487.94 777.034 479.72 773.434 470.568C769.831 461.408 763.204 451.374 753.782 440.65C734.939 419.204 705.059 395.157 666.385 370.007C589.049 319.715 476.738 265.13 347.783 218.195C218.828 171.259 97.7058 140.88 6.13627 129.696C-39.6566 124.103 -78.0027 123.317 -106.223 127.634C-120.333 129.793 -131.86 133.219 -140.507 137.92C-149.148 142.618 -154.86 148.555 -157.471 155.729C-160.082 162.903 -159.523 171.122 -155.923 180.274C-152.32 189.434 -145.693 199.468 -136.271 210.192C-117.428 231.638 -87.5485 255.685 -48.8739 280.835C28.4616 331.127 140.773 385.712 269.728 432.648C398.683 479.583 519.805 509.962 611.375 521.146C657.168 526.739 695.514 527.525 723.734 523.208C737.844 521.05 749.371 517.623 758.018 512.922C766.659 508.225 772.371 502.287 774.982 495.114Z" stroke="#2B2C3B" stroke-width="2"/>
<path opacity="0.689655" d="M789.982 457.271C791.957 449.896 790.684 441.757 786.3 432.953C781.913 424.142 774.437 414.724 764.116 404.862C743.475 385.14 711.614 363.789 670.894 342.105C589.47 298.744 472.828 254.156 340.273 218.638C207.718 183.12 84.4093 163.414 -7.78653 160.253C-53.8927 158.672 -92.1613 161.232 -119.898 167.992C-133.767 171.372 -144.95 175.79 -153.155 181.227C-161.354 186.659 -166.526 193.072 -168.502 200.446C-170.478 207.82 -169.205 215.959 -164.821 224.763C-160.434 233.574 -152.957 242.992 -142.637 252.854C-121.996 272.577 -90.1342 293.927 -49.4147 315.611C32.0097 358.972 148.652 403.56 281.206 439.078C413.761 474.596 537.07 494.302 629.266 497.463C675.372 499.044 713.641 496.485 741.377 489.725C755.246 486.345 766.43 481.927 774.635 476.49C782.833 471.057 788.006 464.645 789.982 457.271Z" stroke="#2B2C3B" stroke-width="2"/>
<path opacity="0.724138" d="M801.335 418.451C802.66 410.932 800.682 402.935 795.548 394.547C790.409 386.151 782.141 377.421 771 368.496C748.719 350.648 715.117 332.155 672.663 314.102C587.769 278.003 467.685 243.751 332.539 219.921C197.393 196.091 72.836 187.207 -19.2845 192.093C-65.3529 194.537 -103.253 200.422 -130.295 209.573C-143.816 214.149 -154.572 219.525 -162.272 225.657C-169.966 231.783 -174.56 238.622 -175.886 246.14C-177.211 253.659 -175.233 261.656 -170.099 270.044C-164.96 278.44 -156.692 287.17 -145.551 296.095C-123.27 313.943 -89.6683 332.436 -47.2139 350.489C37.6798 386.587 157.764 420.84 292.91 444.67C428.056 468.5 552.613 477.384 644.734 472.498C690.802 470.054 728.702 464.169 755.744 455.017C769.265 450.441 780.021 445.065 787.721 438.934C795.415 432.808 800.009 425.969 801.335 418.451Z" stroke="#2B2C3B" stroke-width="2"/>
<path opacity="0.758621" d="M808.969 378.976C809.634 371.37 806.967 363.576 801.121 355.667C795.27 347.751 786.272 339.775 774.396 331.855C750.644 316.016 715.559 300.523 671.692 286.239C583.976 257.676 461.363 234.02 324.655 222.06C187.946 210.099 63.0883 212.105 -28.2557 225.001C-73.9359 231.451 -111.179 240.617 -137.32 252.09C-150.391 257.827 -160.638 264.12 -167.774 270.9C-174.904 277.673 -178.885 284.886 -179.55 292.491C-180.216 300.097 -177.548 307.891 -171.702 315.8C-165.852 323.716 -156.853 331.692 -144.977 339.612C-121.225 355.451 -86.14 370.944 -42.2738 385.228C45.4431 413.791 168.056 437.447 304.764 449.407C441.473 461.368 566.33 459.362 657.674 446.466C703.355 440.016 740.597 430.85 766.739 419.377C779.81 413.64 790.056 407.347 797.193 400.567C804.323 393.794 808.304 386.581 808.969 378.976Z" stroke="#2B2C3B" stroke-width="2"/>
<path opacity="0.793103" d="M812.841 339.171C812.841 331.536 809.505 324.004 802.992 316.635C796.474 309.259 786.814 302.097 774.293 295.243C749.251 281.534 712.949 269.158 668.005 258.751C578.132 237.943 453.925 225.063 316.694 225.063C179.463 225.063 55.2553 237.943 -34.6171 258.751C-79.5613 269.158 -115.864 281.534 -140.905 295.243C-153.427 302.097 -163.086 309.259 -169.604 316.635C-176.117 324.004 -179.454 331.536 -179.454 339.171C-179.454 346.805 -176.117 354.338 -169.604 361.707C-163.086 369.082 -153.427 376.244 -140.905 383.099C-115.864 396.807 -79.5613 409.184 -34.6171 419.59C55.2553 440.399 179.463 453.279 316.694 453.279C453.925 453.279 578.132 440.399 668.005 419.59C712.949 409.184 749.251 396.807 774.293 383.099C786.814 376.244 796.474 369.082 802.992 361.707C809.505 354.338 812.841 346.805 812.841 339.171Z" stroke="#2B2C3B" stroke-width="2"/>
<path opacity="0.827586" d="M812.939 299.366C812.273 291.761 808.293 284.548 801.162 277.775C794.026 270.995 783.779 264.702 770.708 258.965C744.567 247.492 707.324 238.326 661.644 231.876C570.3 218.98 445.442 216.974 308.734 228.935C172.025 240.895 49.4126 264.551 -38.3042 293.114C-82.1705 307.398 -117.256 322.891 -141.008 338.73C-152.884 346.65 -161.882 354.626 -167.733 362.542C-173.579 370.451 -176.246 378.245 -175.581 385.851C-174.915 393.456 -170.935 400.669 -163.805 407.443C-156.668 414.222 -146.422 420.515 -133.35 426.252C-107.209 437.725 -69.9664 446.891 -24.2862 453.341C67.0579 466.237 191.915 468.243 328.624 456.282C465.333 444.322 587.945 420.666 675.662 392.103C719.528 377.819 754.614 362.326 778.365 346.487C790.242 338.567 799.24 330.591 805.091 322.675C810.936 314.766 813.604 306.972 812.939 299.366Z" stroke="#2B2C3B" stroke-width="2"/>
<path opacity="0.862069" d="M809.273 259.891C807.947 252.373 803.353 245.534 795.66 239.407C787.959 233.276 777.203 227.9 763.682 223.324C736.64 214.172 698.74 208.287 652.672 205.844C560.551 200.957 435.994 209.842 300.848 233.671C165.702 257.501 45.618 291.754 -39.2757 327.853C-81.7301 345.905 -115.332 364.398 -137.613 382.247C-148.753 391.171 -157.022 399.902 -162.161 408.297C-167.295 416.685 -169.273 424.683 -167.947 432.201C-166.622 439.719 -162.028 446.558 -154.334 452.684C-146.634 458.816 -135.878 464.192 -122.356 468.768C-95.3147 477.919 -57.4147 483.804 -11.3463 486.248C80.7742 491.135 205.331 482.25 340.477 458.42C475.623 434.591 595.707 400.338 680.601 364.239C723.056 346.187 756.657 327.694 778.938 309.845C790.079 300.921 798.348 292.19 803.486 283.795C808.62 275.407 810.598 267.409 809.273 259.891Z" stroke="#2B2C3B" stroke-width="2"/>
<path opacity="0.896552" d="M801.889 221.071C799.914 213.696 794.741 207.284 786.543 201.852C778.338 196.415 767.154 191.996 753.285 188.616C725.549 181.857 687.28 179.297 641.174 180.878C548.978 184.039 425.669 203.745 293.114 239.263C160.559 274.781 43.9176 319.369 -37.5068 362.73C-78.2263 384.414 -110.088 405.765 -130.729 425.487C-141.049 435.349 -148.526 444.767 -152.913 453.578C-157.297 462.382 -158.57 470.521 -156.594 477.895C-154.618 485.27 -149.446 491.682 -141.248 497.114C-133.042 502.551 -121.859 506.97 -107.99 510.35C-80.2534 517.11 -41.9848 519.669 4.12135 518.088C96.3172 514.927 219.626 495.221 352.181 459.703C484.736 424.185 601.378 379.597 682.802 336.236C723.521 314.552 755.383 293.201 776.024 273.479C786.345 263.617 793.821 254.199 798.208 245.388C802.592 236.584 803.865 228.445 801.889 221.071Z" stroke="#2B2C3B" stroke-width="2"/>
<path opacity="0.931035" d="M790.858 183.228C788.247 176.054 782.536 170.117 773.895 165.42C765.247 160.719 753.721 157.292 739.61 155.134C711.39 150.817 673.044 151.603 627.251 157.196C535.682 168.38 414.56 198.759 285.605 245.694C156.65 292.63 44.3383 347.215 -32.9972 397.507C-71.6718 422.657 -101.552 446.704 -120.395 468.15C-129.817 478.874 -136.444 488.908 -140.046 498.068C-143.646 507.22 -144.205 515.439 -141.594 522.613C-138.983 529.787 -133.271 535.724 -124.631 540.422C-115.983 545.123 -104.457 548.549 -90.3461 550.708C-62.126 555.025 -23.7799 554.239 22.013 548.646C113.582 537.462 234.705 507.083 363.659 460.147C492.614 413.212 604.926 358.627 682.262 308.335C720.936 283.185 750.816 259.138 769.659 237.692C779.081 226.968 785.708 216.934 789.311 207.774C792.91 198.622 793.47 190.402 790.858 183.228Z" stroke="#2B2C3B" stroke-width="2"/>
<path opacity="0.965517" d="M776.279 146.676C773.052 139.757 766.845 134.341 757.828 130.414C748.803 126.485 737.022 124.076 722.777 123.155C694.288 121.314 656.156 125.439 611.025 135.002C520.779 154.125 402.765 194.944 278.392 252.94C154.019 310.937 46.8915 375.102 -25.7664 431.943C-62.1018 460.369 -89.7721 486.928 -106.674 509.935C-115.126 521.439 -120.853 532.012 -123.644 541.451C-126.432 550.882 -126.273 559.119 -123.046 566.038C-119.82 572.957 -113.612 578.374 -104.595 582.3C-95.5709 586.23 -83.7897 588.639 -69.5447 589.559C-41.0558 591.4 -2.92413 587.276 42.207 577.713C132.453 558.59 250.467 517.771 374.84 459.774C499.214 401.778 606.341 337.613 678.999 280.772C715.334 252.346 743.004 225.787 759.907 202.78C768.358 191.276 774.085 180.703 776.876 171.263C779.664 161.832 779.505 153.595 776.279 146.676Z" stroke="#2B2C3B" stroke-width="2"/>
<path d="M758.278 111.721C754.461 105.11 747.805 100.255 738.48 97.1294C729.147 94.0012 717.201 92.6282 702.93 92.9528C674.389 93.602 636.762 101.034 592.636 114.494C504.4 141.41 390.393 192.359 271.547 260.975C152.702 329.59 51.575 402.848 -15.8524 465.805C-49.5721 497.29 -74.8223 526.159 -89.655 550.552C-97.0716 562.749 -101.856 573.781 -103.813 583.427C-105.769 593.066 -104.892 601.258 -101.075 607.869C-97.2578 614.481 -90.6017 619.336 -81.2769 622.461C-71.9442 625.589 -59.9979 626.962 -45.7269 626.638C-17.186 625.988 20.4411 618.556 64.5671 605.096C152.803 578.181 266.81 527.231 385.656 458.616C504.501 390 605.628 316.742 673.055 253.785C706.775 222.301 732.025 193.431 746.858 169.038C754.275 156.842 759.059 145.809 761.016 136.163C762.972 126.525 762.095 118.333 758.278 111.721Z" stroke="#2B2C3B" stroke-width="2"/>
</g>
</svg>
