<svg width="16" height="16" viewBox="0 0 16 16" fill="none" xmlns="http://www.w3.org/2000/svg">
<path d="M14.5402 2.62665C13.5135 5.18665 10.9402 8.66665 8.78684 10.3933L7.47351 11.4466C7.30684 11.5666 7.14018 11.6733 6.95351 11.7466C6.95351 11.6266 6.94684 11.4933 6.92684 11.3666C6.85351 10.8066 6.60018 10.2866 6.15351 9.83998C5.70018 9.38665 5.14684 9.11998 4.58018 9.04665C4.44684 9.03998 4.31351 9.02665 4.18018 9.03998C4.25351 8.83331 4.36684 8.63998 4.50684 8.47998L5.54684 7.16665C7.26684 5.01331 10.7602 2.42665 13.3135 1.40665C13.7068 1.25998 14.0868 1.36665 14.3268 1.61331C14.5802 1.85998 14.7002 2.23998 14.5402 2.62665Z" stroke="#292D32" stroke-width="1.5" stroke-linecap="round" stroke-linejoin="round"/>
<path d="M6.95319 11.7467C6.95319 12.48 6.67319 13.18 6.14652 13.7133C5.73986 14.12 5.18652 14.4 4.52652 14.4867L2.88652 14.6667C1.99319 14.7667 1.22652 14.0067 1.33319 13.1L1.51319 11.46C1.67319 9.99999 2.89319 9.06666 4.18652 9.03999C4.31986 9.03333 4.45986 9.03999 4.58652 9.04666C5.15319 9.11999 5.70652 9.37999 6.15986 9.83999C6.60652 10.2867 6.85986 10.8067 6.93319 11.3667C6.93986 11.4933 6.95319 11.62 6.95319 11.7467Z" stroke="#292D32" stroke-width="1.5" stroke-linecap="round" stroke-linejoin="round"/>
<path d="M9.49318 9.64668C9.49318 7.90668 8.07984 6.49335 6.33984 6.49335" stroke="#292D32" stroke-width="1.5" stroke-linecap="round" stroke-linejoin="round"/>
</svg>
