<svg width="40" height="40" viewBox="0 0 40 40" fill="none" xmlns="http://www.w3.org/2000/svg">
<rect width="40" height="40" rx="10" fill="#D9D9D9"/>
<path d="M25 19.4V22.4C25 26.4 23.4 28 19.4 28H15.6C11.6 28 10 26.4 10 22.4V18.6C10 14.6 11.6 13 15.6 13H18.6" stroke="#292D32" stroke-width="1.5" stroke-linecap="round" stroke-linejoin="round"/>
<path d="M25.0001 19.4H21.8001C19.4001 19.4 18.6001 18.6 18.6001 16.2V13L25.0001 19.4Z" stroke="#292D32" stroke-width="1.5" stroke-linecap="round" stroke-linejoin="round"/>
<path d="M19.6001 8H23.6001" stroke="#292D32" stroke-width="1.5" stroke-linecap="round" stroke-linejoin="round"/>
<path d="M15 11C15 9.34 16.34 8 18 8H20.62" stroke="#292D32" stroke-width="1.5" stroke-linecap="round" stroke-linejoin="round"/>
<path d="M29.9999 14V20.19C29.9999 21.74 28.7399 23 27.1899 23" stroke="#292D32" stroke-width="1.5" stroke-linecap="round" stroke-linejoin="round"/>
<path d="M30 14H27C24.75 14 24 13.25 24 11V8L30 14Z" stroke="#292D32" stroke-width="1.5" stroke-linecap="round" stroke-linejoin="round"/>
</svg>
