<svg width="25" height="24" viewBox="0 0 25 24" fill="none" xmlns="http://www.w3.org/2000/svg">
<path d="M22.5 16.19C22.5 19.83 20.33 22 16.69 22H15.5C14.95 22 14.5 21.55 14.5 21V15.23C14.5 14.96 14.72 14.73 14.99 14.73L16.75 14.7C16.89 14.69 17.01 14.59 17.04 14.45L17.39 12.54C17.42 12.36 17.28 12.19 17.09 12.19L14.96 12.22C14.68 12.22 14.46 12 14.45 11.73L14.41 9.28C14.41 9.12 14.54 8.98001 14.71 8.98001L17.11 8.94C17.28 8.94 17.41 8.81001 17.41 8.64001L17.37 6.23999C17.37 6.06999 17.24 5.94 17.07 5.94L14.37 5.98001C12.71 6.01001 11.39 7.37 11.42 9.03L11.47 11.78C11.48 12.06 11.26 12.28 10.98 12.29L9.78 12.31C9.61 12.31 9.48001 12.44 9.48001 12.61L9.51001 14.51C9.51001 14.68 9.64 14.81 9.81 14.81L11.01 14.79C11.29 14.79 11.51 15.01 11.52 15.28L11.61 20.98C11.62 21.54 11.17 22 10.61 22H8.31C4.67 22 2.5 19.83 2.5 16.18V7.81C2.5 4.17 4.67 2 8.31 2H16.69C20.33 2 22.5 4.17 22.5 7.81V16.19Z" fill="white"/>
</svg>
