<svg width="30" height="30" viewBox="0 0 30 30" fill="none" xmlns="http://www.w3.org/2000/svg">
<g clip-path="url(#clip0_238_1348)">
<path d="M15.5418 9.3999C12.8438 9.4179 9.34181 11.4759 12.7418 15.3379L19.1998 15.2999C19.7772 15.2972 20.3438 15.1433 20.8431 14.8534C21.3425 14.5636 21.7571 14.1479 22.0458 13.6479L24.5058 9.3999H15.5418Z" fill="url(#paint0_linear_238_1348)"/>
<path d="M14.3641 9.3999C9.07414 9.3999 5.76414 15.1259 8.41414 19.7079L13.4841 28.4939L15.9521 24.2199C16.2406 23.7182 16.3924 23.1496 16.3924 22.5709C16.3924 21.9922 16.2406 21.4236 15.9521 20.9219L12.7521 15.3419C12.4994 14.91 12.2942 14.452 12.1401 13.9759C11.2001 10.9539 13.6101 9.3999 15.5421 9.3999H14.3641Z" fill="#4285F4"/>
<path d="M7.19991 2.3999C6.61987 2.39999 6.05006 2.55269 5.5477 2.84266C5.04533 3.13263 4.62811 3.54967 4.33791 4.0519L1.85791 8.3419H23.1999C23.7802 8.34181 24.3502 8.1889 24.8526 7.89855C25.355 7.60819 25.7721 7.19064 26.0619 6.6879L28.5419 2.3999H7.19991Z" fill="#4285F4"/>
</g>
<defs>
<linearGradient id="paint0_linear_238_1348" x1="17.5858" y1="12.3599" x2="11.5578" y2="12.3599" gradientUnits="userSpaceOnUse">
<stop stop-color="#4285F4"/>
<stop offset="1" stop-color="#023383"/>
</linearGradient>
<clipPath id="clip0_238_1348">
<rect width="30" height="30" fill="white"/>
</clipPath>
</defs>
</svg>
