<svg width="25" height="25" viewBox="0 0 25 25" fill="none" xmlns="http://www.w3.org/2000/svg">
<path d="M9.5 22.8711H15.5C20.5 22.8711 22.5 20.8711 22.5 15.8711V9.87109C22.5 4.87109 20.5 2.87109 15.5 2.87109H9.5C4.5 2.87109 2.5 4.87109 2.5 9.87109V15.8711C2.5 20.8711 4.5 22.8711 9.5 22.8711Z" stroke="#292D32" stroke-width="1.5" stroke-linecap="round" stroke-linejoin="round"/>
<path d="M9.5 10.8711C10.6046 10.8711 11.5 9.97566 11.5 8.87109C11.5 7.76652 10.6046 6.87109 9.5 6.87109C8.39543 6.87109 7.5 7.76652 7.5 8.87109C7.5 9.97566 8.39543 10.8711 9.5 10.8711Z" stroke="#292D32" stroke-width="1.5" stroke-linecap="round" stroke-linejoin="round"/>
<path d="M3.16992 19.8212L8.09992 16.5112C8.88992 15.9812 10.0299 16.0412 10.7399 16.6512L11.0699 16.9412C11.8499 17.6112 13.1099 17.6112 13.8899 16.9412L18.0499 13.3712C18.8299 12.7012 20.0899 12.7012 20.8699 13.3712L22.4999 14.7712" stroke="#292D32" stroke-width="1.5" stroke-linecap="round" stroke-linejoin="round"/>
</svg>
