<svg width="81" height="88" viewBox="0 0 81 88" fill="none" xmlns="http://www.w3.org/2000/svg">
<g filter="url(#filter0_b_18_593)">
<path d="M0.5 47.8954C0.5 25.8618 18.4664 8 40.5 8C62.5336 8 80.5 25.8618 80.5 47.8954C80.5 69.929 62.5336 87.7908 40.5 87.7908C18.4664 87.7908 0.5 69.929 0.5 47.8954Z" fill="url(#paint0_radial_18_593)"/>
<path d="M1 47.8954C1 26.1396 18.7408 8.5 40.5 8.5C62.2592 8.5 80 26.1396 80 47.8954C80 69.6512 62.2592 87.2908 40.5 87.2908C18.7408 87.2908 1 69.6512 1 47.8954Z" stroke="url(#paint1_radial_18_593)"/>
<path d="M1 47.8954C1 26.1396 18.7408 8.5 40.5 8.5C62.2592 8.5 80 26.1396 80 47.8954C80 69.6512 62.2592 87.2908 40.5 87.2908C18.7408 87.2908 1 69.6512 1 47.8954Z" stroke="url(#paint2_radial_18_593)"/>
<path d="M1 47.8954C1 26.1396 18.7408 8.5 40.5 8.5C62.2592 8.5 80 26.1396 80 47.8954C80 69.6512 62.2592 87.2908 40.5 87.2908C18.7408 87.2908 1 69.6512 1 47.8954Z" stroke="url(#paint3_radial_18_593)"/>
</g>
<g filter="url(#filter1_f_18_593)">
<ellipse cx="40.2435" cy="29.4822" rx="25.3846" ry="16.3673" fill="url(#paint4_radial_18_593)" fill-opacity="0.2"/>
</g>
<defs>
<filter id="filter0_b_18_593" x="-4.5" y="3" width="90" height="89.7908" filterUnits="userSpaceOnUse" color-interpolation-filters="sRGB">
<feFlood flood-opacity="0" result="BackgroundImageFix"/>
<feGaussianBlur in="BackgroundImageFix" stdDeviation="2.5"/>
<feComposite in2="SourceAlpha" operator="in" result="effect1_backgroundBlur_18_593"/>
<feBlend mode="normal" in="SourceGraphic" in2="effect1_backgroundBlur_18_593" result="shape"/>
</filter>
<filter id="filter1_f_18_593" x="1.90435" y="0.160334" width="76.6784" height="58.6437" filterUnits="userSpaceOnUse" color-interpolation-filters="sRGB">
<feFlood flood-opacity="0" result="BackgroundImageFix"/>
<feBlend mode="normal" in="SourceGraphic" in2="BackgroundImageFix" result="shape"/>
<feGaussianBlur stdDeviation="6.47727" result="effect1_foregroundBlur_18_593"/>
</filter>
<radialGradient id="paint0_radial_18_593" cx="0" cy="0" r="1" gradientUnits="userSpaceOnUse" gradientTransform="translate(7.19204 8) rotate(47.9449) scale(119.431 86.7751)">
<stop stop-color="white" stop-opacity="0.36"/>
<stop offset="1" stop-color="white" stop-opacity="0"/>
</radialGradient>
<radialGradient id="paint1_radial_18_593" cx="0" cy="0" r="1" gradientUnits="userSpaceOnUse" gradientTransform="translate(-42.0965 16.1628) rotate(35.0407) scale(92.1512 54.3882)">
<stop stop-color="white"/>
<stop offset="1" stop-color="white" stop-opacity="0.06"/>
</radialGradient>
<radialGradient id="paint2_radial_18_593" cx="0" cy="0" r="1" gradientUnits="userSpaceOnUse" gradientTransform="translate(103.921 61.4008) rotate(161.385) scale(66.8428 45.1784)">
<stop stop-color="#8470FF"/>
<stop offset="1" stop-color="#865CFF" stop-opacity="0"/>
</radialGradient>
<radialGradient id="paint3_radial_18_593" cx="0" cy="0" r="1" gradientUnits="userSpaceOnUse" gradientTransform="translate(41.371 -10.2359) rotate(47.2149) scale(44.643 32.0879)">
<stop/>
<stop offset="1" stop-color="white" stop-opacity="0"/>
</radialGradient>
<radialGradient id="paint4_radial_18_593" cx="0" cy="0" r="1" gradientUnits="userSpaceOnUse" gradientTransform="translate(40.2435 13.1149) rotate(90) scale(24.2566 37.625)">
<stop stop-color="white"/>
<stop offset="1" stop-color="white" stop-opacity="0"/>
</radialGradient>
</defs>
</svg>
