<svg width="26" height="26" viewBox="0 0 26 26" fill="none" xmlns="http://www.w3.org/2000/svg">
<path d="M24.3762 13.2526C24.3762 12.3174 24.2988 11.6349 24.1312 10.9271H13.2334V15.1484H19.6302C19.5012 16.1975 18.8048 17.7774 17.2572 18.839L17.2355 18.9803L20.6812 21.5962L20.9199 21.6196C23.1123 19.6353 24.3762 16.7157 24.3762 13.2526Z" fill="#00AA11"/>
<path d="M13.2328 24.375C16.3667 24.375 18.9976 23.3638 20.9193 21.6197L17.2566 18.839C16.2764 19.5089 14.9609 19.9766 13.2328 19.9766C10.1634 19.9766 7.55826 17.9923 6.62961 15.2496L6.49349 15.261L2.91062 17.9784L2.86377 18.106C4.77247 21.8218 8.6931 24.375 13.2328 24.375Z" fill="#34A853"/>
<path d="M6.62989 15.2497C6.38485 14.5419 6.24304 13.7835 6.24304 13C6.24304 12.2163 6.38485 11.458 6.617 10.7502L6.61051 10.5995L2.98273 7.83847L2.86404 7.8938C2.07737 9.43576 1.62598 11.1673 1.62598 13C1.62598 14.8326 2.07737 16.5641 2.86404 18.106L6.62989 15.2497Z" fill="#FBBC05"/>
<path d="M13.2329 6.0233C15.4124 6.0233 16.8826 6.94594 17.7209 7.71696L20.9967 4.5825C18.9849 2.74987 16.3668 1.625 13.2329 1.625C8.69313 1.625 4.77248 4.17804 2.86377 7.89384L6.61674 10.7503C7.55829 8.00763 10.1634 6.0233 13.2329 6.0233Z" fill="#EB4335"/>
</svg>
