<svg width="49" height="49" viewBox="0 0 49 49" fill="none" xmlns="http://www.w3.org/2000/svg">
<rect width="49" height="49" rx="24.5" fill="url(#paint0_linear_168_937)"/>
<path d="M35 29.19C35 32.83 32.83 35 29.19 35H28C27.45 35 27 34.55 27 34V28.23C27 27.96 27.22 27.73 27.49 27.73L29.25 27.7C29.39 27.69 29.51 27.59 29.54 27.45L29.89 25.54C29.92 25.36 29.78 25.19 29.59 25.19L27.46 25.22C27.18 25.22 26.96 25 26.95 24.73L26.91 22.28C26.91 22.12 27.04 21.98 27.21 21.98L29.61 21.94C29.78 21.94 29.91 21.81 29.91 21.64L29.87 19.24C29.87 19.07 29.74 18.94 29.57 18.94L26.87 18.98C25.21 19.01 23.89 20.37 23.92 22.03L23.97 24.78C23.98 25.06 23.76 25.28 23.48 25.29L22.28 25.31C22.11 25.31 21.98 25.44 21.98 25.61L22.01 27.51C22.01 27.68 22.14 27.81 22.31 27.81L23.51 27.79C23.79 27.79 24.01 28.01 24.02 28.28L24.11 33.98C24.12 34.54 23.67 35 23.11 35H20.81C17.17 35 15 32.83 15 29.18V20.81C15 17.17 17.17 15 20.81 15H29.19C32.83 15 35 17.17 35 20.81V29.19Z" fill="white"/>
<defs>
<linearGradient id="paint0_linear_168_937" x1="36.4512" y1="-4.78049" x2="11.9512" y2="53.1829" gradientUnits="userSpaceOnUse">
<stop stop-color="#4285F4"/>
<stop offset="1" stop-color="#9240FD"/>
</linearGradient>
</defs>
</svg>
