<svg width="49" height="49" viewBox="0 0 49 49" fill="none" xmlns="http://www.w3.org/2000/svg">
<rect width="49" height="49" rx="24.5" fill="url(#paint0_linear_152_661)"/>
<path d="M21.6679 38C20.6326 37.4297 19.6055 36.8641 18.5448 36.2799C18.9526 35.546 19.3486 34.8337 19.7537 34.1057C19.4389 33.9229 19.1538 33.7568 18.8379 33.5734C18.4344 34.2912 18.0298 35.01 17.6069 35.7621C16.5564 35.1837 15.5228 34.6144 14.4664 34.0328C14.7466 33.5295 15.0192 33.0395 15.2924 32.5496C15.545 32.0972 15.803 31.6485 16.0453 31.1908C16.0794 31.127 16.0658 30.9999 16.022 30.9394C14.3858 28.6843 13.7508 26.1676 14.0872 23.4253C14.3085 21.6226 14.9976 19.9877 16.1053 18.5291C17.0914 17.2303 18.3117 16.2113 19.7678 15.4716C20.9583 14.8669 22.2229 14.4944 23.5578 14.3958C24.1388 14.3529 24.7256 14.3883 25.3093 14.3722C25.3931 14.37 25.5105 14.2987 25.5521 14.2258C26.0438 13.365 26.5241 12.4982 27.0077 11.6331C27.1202 11.4315 27.2349 11.2305 27.3652 11C28.4086 11.5746 29.4423 12.1439 30.5062 12.7298C30.0216 13.5971 29.5407 14.4574 29.0485 15.3387C29.3557 15.5075 29.6521 15.671 29.9788 15.8506C30.4646 14.9859 30.9481 14.1256 31.4425 13.2465C32.4978 13.8281 33.5385 14.4017 34.5851 14.9784C34.0669 15.9036 33.5655 16.8085 33.0533 17.7074C32.7423 18.2536 32.7417 18.2445 33.1052 18.7505C34.0372 20.0493 34.6495 21.4811 34.8999 23.0597C34.9302 23.2505 34.9584 23.4419 34.9903 23.6541H25.9962V20.1345H29.5331C29.0079 18.9124 25.7393 17.7213 23.8829 17.9245C20.4266 18.3029 17.866 20.9992 17.6101 24.2566C17.3727 27.2836 19.1403 30.027 21.913 31.1484C25.0107 32.4011 28.083 31.1811 29.5575 29.454H25.9946V25.899H35C34.9264 26.3284 34.8794 26.7513 34.7793 27.1619C34.4391 28.5551 33.8468 29.8341 32.9819 30.9898C32.1224 32.1379 31.0725 33.0739 29.8339 33.7986C28.5779 34.534 27.2197 35.002 25.7701 35.1467C25.021 35.2217 24.2588 35.1783 23.5032 35.1735C23.3404 35.1724 23.2549 35.2008 23.1716 35.3557C22.7308 36.1732 22.2716 36.9805 21.8172 37.7899C21.7788 37.8585 21.7258 37.9196 21.669 37.9989L21.6679 38Z" fill="white"/>
<defs>
<linearGradient id="paint0_linear_152_661" x1="36.4512" y1="-4.78049" x2="11.9512" y2="53.1829" gradientUnits="userSpaceOnUse">
<stop stop-color="#42F4B4"/>
<stop offset="1" stop-color="#4097FD"/>
</linearGradient>
</defs>
</svg>
