<svg width="40" height="28" viewBox="0 0 40 28" fill="none" xmlns="http://www.w3.org/2000/svg">
<path d="M13.4148 15.1193C13.2727 14.6591 13.0767 14.2472 12.8267 13.8835C12.5824 13.5142 12.2869 13.1989 11.9403 12.9375C11.5994 12.6761 11.2074 12.4801 10.7642 12.3494C10.321 12.2131 9.83807 12.1449 9.31534 12.1449C8.37784 12.1449 7.54261 12.3807 6.80966 12.8523C6.0767 13.3239 5.5 14.017 5.07955 14.9318C4.66477 15.8409 4.45739 16.9489 4.45739 18.2557C4.45739 19.5739 4.66477 20.6903 5.07955 21.6051C5.49432 22.5199 6.07102 23.2159 6.80966 23.6932C7.5483 24.1648 8.40625 24.4006 9.38352 24.4006C10.2699 24.4006 11.0369 24.2301 11.6847 23.8892C12.3381 23.5483 12.8409 23.0653 13.1932 22.4403C13.5455 21.8097 13.7216 21.071 13.7216 20.2244L14.4375 20.3352H9.69886V17.8636H16.7812V19.9602C16.7812 21.4545 16.4631 22.7472 15.8267 23.8381C15.1903 24.929 14.3153 25.7699 13.2017 26.3608C12.0881 26.946 10.8097 27.2386 9.36648 27.2386C7.75852 27.2386 6.34659 26.8778 5.13068 26.1562C3.92045 25.429 2.97443 24.3977 2.29261 23.0625C1.61648 21.7216 1.27841 20.1307 1.27841 18.2898C1.27841 16.8807 1.47727 15.6222 1.875 14.5142C2.27841 13.4062 2.84091 12.4659 3.5625 11.6932C4.28409 10.9148 5.13068 10.3239 6.10227 9.92045C7.07386 9.51136 8.13068 9.30682 9.27273 9.30682C10.2386 9.30682 11.1392 9.44886 11.9744 9.73295C12.8097 10.0114 13.5511 10.4091 14.1989 10.9261C14.8523 11.4432 15.3892 12.0568 15.8097 12.767C16.2301 13.4773 16.5057 14.2614 16.6364 15.1193H13.4148Z" fill="white"/>
<path d="M28.2259 26.3196C26.5852 26.3196 25.1683 25.9787 23.9751 25.2969C22.7891 24.608 21.8764 23.6349 21.2372 22.3778C20.598 21.1136 20.2784 19.6257 20.2784 17.9141C20.2784 16.2308 20.598 14.7536 21.2372 13.4822C21.8835 12.2038 22.7855 11.2095 23.9432 10.4993C25.1009 9.78196 26.4609 9.4233 28.0234 9.4233C29.032 9.4233 29.9837 9.58665 30.8786 9.91335C31.7805 10.233 32.576 10.7301 33.2649 11.4048C33.9609 12.0795 34.5078 12.9389 34.9055 13.983C35.3033 15.0199 35.5021 16.2557 35.5021 17.6903V18.8729H22.0895V16.2734H31.8054C31.7983 15.5348 31.6385 14.8778 31.326 14.3026C31.0135 13.7202 30.5767 13.2621 30.0156 12.9283C29.4616 12.5945 28.8153 12.4276 28.0767 12.4276C27.2884 12.4276 26.5959 12.6193 25.9993 13.0028C25.4027 13.3793 24.9375 13.8764 24.6037 14.4943C24.277 15.1051 24.1101 15.7763 24.103 16.5078V18.777C24.103 19.7287 24.277 20.5455 24.625 21.2273C24.973 21.902 25.4595 22.4205 26.0845 22.7827C26.7095 23.1378 27.4411 23.3153 28.2791 23.3153C28.8402 23.3153 29.348 23.2372 29.8026 23.081C30.2571 22.9176 30.6513 22.6797 30.9851 22.3672C31.3189 22.0547 31.571 21.6676 31.7415 21.206L35.3423 21.6108C35.1151 22.5625 34.6818 23.3935 34.0426 24.1037C33.4105 24.8068 32.6009 25.3537 31.6136 25.7443C30.6264 26.1278 29.4972 26.3196 28.2259 26.3196Z" fill="white"/>
</svg>
