<svg width="49" height="49" viewBox="0 0 49 49" fill="none" xmlns="http://www.w3.org/2000/svg">
<rect width="49" height="49" rx="24.5" fill="url(#paint0_linear_152_658)"/>
<path fill-rule="evenodd" clip-rule="evenodd" d="M25 15C19.48 15 15 19.48 15 25C15 30.52 19.48 35 25 35C30.52 35 35 30.52 35 25C35 19.48 30.52 15 25 15ZM30.31 28.31C30.02 28.47 29.78 28.54 29.58 28.59C29.41 28.63 29.27 28.67 29.15 28.75C29.02 28.83 29.01 28.96 28.99 29.08C28.97 29.19 28.96 29.28 28.88 29.34C28.79 29.4 28.62 29.41 28.39 29.42C28.09 29.44 27.71 29.45 27.25 29.59C27.03 29.67 26.83 29.79 26.63 29.91C26.23 30.16 25.78 30.43 24.99 30.43C24.21 30.43 23.76 30.16 23.36 29.91C23.16 29.78 22.96 29.66 22.73 29.58C22.28 29.44 21.89 29.42 21.59 29.41C21.36 29.4 21.2 29.39 21.1 29.33C21.02 29.28 21.01 29.18 20.99 29.07C20.97 28.95 20.96 28.82 20.83 28.74C20.71 28.66 20.56 28.62 20.4 28.57C20.2 28.52 19.96 28.46 19.67 28.3C19.33 28.11 19.53 28 19.64 27.94C21.57 27.01 21.87 25.57 21.88 25.46C21.88 25.45 21.88 25.45 21.88 25.44C21.9 25.32 21.91 25.22 21.77 25.09C21.68 25 21.37 24.8 21.12 24.64C21.01 24.56 20.91 24.5 20.85 24.47C20.57 24.27 20.45 24.08 20.54 23.83C20.6 23.66 20.76 23.6 20.92 23.6C20.97 23.6 21.03 23.61 21.07 23.62C21.25 23.66 21.43 23.73 21.59 23.79C21.7 23.84 21.79 23.87 21.86 23.89C21.88 23.9 21.91 23.9 21.92 23.9C22.02 23.9 22.05 23.85 22.04 23.75C22.04 23.72 22.04 23.69 22.03 23.66C22.01 23.31 21.98 22.7 22.02 22.14C22.1 21.3 22.37 20.87 22.69 20.51C22.85 20.33 23.58 19.56 24.97 19.56C26.37 19.56 27.09 20.33 27.25 20.5C27.57 20.87 27.84 21.29 27.92 22.14C27.97 22.73 27.93 23.36 27.9 23.71V23.74C27.89 23.85 27.92 23.89 28.02 23.89C28.04 23.89 28.06 23.89 28.08 23.88C28.15 23.86 28.24 23.83 28.35 23.79C28.5 23.73 28.68 23.66 28.87 23.62C28.92 23.6 28.97 23.6 29.02 23.6C29.19 23.6 29.34 23.67 29.4 23.84C29.49 24.08 29.37 24.27 29.09 24.47C29.04 24.51 28.94 24.58 28.82 24.64C28.58 24.8 28.26 25 28.17 25.09C28.03 25.22 28.04 25.32 28.06 25.44C28.06 25.45 28.06 25.46 28.06 25.46C28.08 25.57 28.38 27.01 30.3 27.94C30.45 28 30.65 28.12 30.31 28.31Z" fill="white"/>
<defs>
<linearGradient id="paint0_linear_152_658" x1="36.4512" y1="-4.78049" x2="11.9512" y2="53.1829" gradientUnits="userSpaceOnUse">
<stop stop-color="#4285F4"/>
<stop offset="1" stop-color="#9240FD"/>
</linearGradient>
</defs>
</svg>
