<svg width="49" height="49" viewBox="0 0 49 49" fill="none" xmlns="http://www.w3.org/2000/svg">
<rect width="49" height="49" rx="24.5" fill="url(#paint0_linear_152_660)"/>
<path d="M29.19 15H20.81C17.17 15 15 17.17 15 20.81V29.18C15 32.83 17.17 35 20.81 35H29.18C32.82 35 34.99 32.83 34.99 29.19V20.81C35 17.17 32.83 15 29.19 15ZM25 28.88C22.86 28.88 21.12 27.14 21.12 25C21.12 22.86 22.86 21.12 25 21.12C27.14 21.12 28.88 22.86 28.88 25C28.88 27.14 27.14 28.88 25 28.88ZM30.92 19.88C30.87 20 30.8 20.11 30.71 20.21C30.61 20.3 30.5 20.37 30.38 20.42C30.26 20.47 30.13 20.5 30 20.5C29.73 20.5 29.48 20.4 29.29 20.21C29.2 20.11 29.13 20 29.08 19.88C29.03 19.76 29 19.63 29 19.5C29 19.37 29.03 19.24 29.08 19.12C29.13 18.99 29.2 18.89 29.29 18.79C29.52 18.56 29.87 18.45 30.19 18.52C30.26 18.53 30.32 18.55 30.38 18.58C30.44 18.6 30.5 18.63 30.56 18.67C30.61 18.7 30.66 18.75 30.71 18.79C30.8 18.89 30.87 18.99 30.92 19.12C30.97 19.24 31 19.37 31 19.5C31 19.63 30.97 19.76 30.92 19.88Z" fill="white"/>
<defs>
<linearGradient id="paint0_linear_152_660" x1="36.4512" y1="-4.78049" x2="11.9512" y2="53.1829" gradientUnits="userSpaceOnUse">
<stop stop-color="#4285F4"/>
<stop offset="1" stop-color="#9240FD"/>
</linearGradient>
</defs>
</svg>
