<svg width="25" height="24" viewBox="0 0 25 24" fill="none" xmlns="http://www.w3.org/2000/svg">
<path d="M16.69 2H8.31C4.67 2 2.5 4.17 2.5 7.81V16.18C2.5 19.83 4.67 22 8.31 22H16.68C20.32 22 22.49 19.83 22.49 16.19V7.81C22.5 4.17 20.33 2 16.69 2ZM12.5 15.88C10.36 15.88 8.62 14.14 8.62 12C8.62 9.86 10.36 8.12 12.5 8.12C14.64 8.12 16.38 9.86 16.38 12C16.38 14.14 14.64 15.88 12.5 15.88ZM18.42 6.88C18.37 7 18.3 7.11 18.21 7.21C18.11 7.3 18 7.37 17.88 7.42C17.76 7.47 17.63 7.5 17.5 7.5C17.23 7.5 16.98 7.4 16.79 7.21C16.7 7.11 16.63 7 16.58 6.88C16.53 6.76 16.5 6.63 16.5 6.5C16.5 6.37 16.53 6.24 16.58 6.12C16.63 5.99 16.7 5.89 16.79 5.79C17.02 5.56 17.37 5.45 17.69 5.52C17.76 5.53 17.82 5.55 17.88 5.58C17.94 5.6 18 5.63 18.06 5.67C18.11 5.7 18.16 5.75 18.21 5.79C18.3 5.89 18.37 5.99 18.42 6.12C18.47 6.24 18.5 6.37 18.5 6.5C18.5 6.63 18.47 6.76 18.42 6.88Z" fill="white"/>
</svg>
