<svg width="24" height="24" viewBox="0 0 24 24" fill="none" xmlns="http://www.w3.org/2000/svg">
<path d="M4.89 10.65L19.11 10.65C20.46 10.65 21 10.08 21 8.64L21 5.01C21 3.57 20.46 3 19.11 3L4.89 3C3.54 3 3 3.57 3 5.01L3 8.64C3 10.08 3.54 10.65 4.89 10.65Z" stroke="white" stroke-width="1.5" stroke-linecap="round" stroke-linejoin="round"/>
<path d="M4.89 21L19.11 21C20.46 21 21 20.43 21 18.99L21 15.36C21 13.93 20.46 13.35 19.11 13.35L4.89 13.35C3.54 13.35 3 13.92 3 15.36L3 18.99C3 20.43 3.54 21 4.89 21Z" stroke="white" stroke-width="1.5" stroke-linecap="round" stroke-linejoin="round"/>
</svg>
