<svg width="25" height="24" viewBox="0 0 25 24" fill="none" xmlns="http://www.w3.org/2000/svg">
<path fill-rule="evenodd" clip-rule="evenodd" d="M12.5 2C6.98 2 2.5 6.48 2.5 12C2.5 17.52 6.98 22 12.5 22C18.02 22 22.5 17.52 22.5 12C22.5 6.48 18.02 2 12.5 2ZM17.81 15.31C17.52 15.47 17.28 15.54 17.08 15.59C16.91 15.63 16.77 15.67 16.65 15.75C16.52 15.83 16.51 15.96 16.49 16.08C16.47 16.19 16.46 16.28 16.38 16.34C16.29 16.4 16.12 16.41 15.89 16.42C15.59 16.44 15.21 16.45 14.75 16.59C14.53 16.67 14.33 16.79 14.13 16.91C13.73 17.16 13.28 17.43 12.49 17.43C11.71 17.43 11.26 17.16 10.86 16.91C10.66 16.78 10.46 16.66 10.23 16.58C9.78001 16.44 9.39 16.42 9.09 16.41C8.86 16.4 8.70001 16.39 8.60001 16.33C8.52001 16.28 8.50999 16.18 8.48999 16.07C8.46999 15.95 8.45999 15.82 8.32999 15.74C8.20999 15.66 8.05999 15.62 7.89999 15.57C7.69999 15.52 7.46001 15.46 7.17001 15.3C6.83001 15.11 7.03001 15 7.14001 14.94C9.07001 14.01 9.37 12.57 9.38 12.46C9.38 12.45 9.38 12.45 9.38 12.44C9.4 12.32 9.40999 12.22 9.26999 12.09C9.17999 12 8.87 11.8 8.62 11.64C8.50999 11.56 8.41001 11.5 8.35001 11.47C8.07001 11.27 7.95001 11.08 8.04001 10.83C8.10001 10.66 8.26001 10.6 8.42001 10.6C8.47001 10.6 8.53001 10.61 8.57001 10.62C8.75001 10.66 8.93 10.73 9.09 10.79C9.2 10.84 9.28999 10.87 9.35999 10.89C9.37999 10.9 9.41001 10.9 9.42001 10.9C9.52001 10.9 9.55001 10.85 9.54001 10.75C9.54001 10.72 9.54 10.69 9.53 10.66C9.51 10.31 9.47999 9.70001 9.51999 9.14001C9.59999 8.30001 9.87 7.87001 10.19 7.51001C10.35 7.33001 11.08 6.56 12.47 6.56C13.87 6.56 14.59 7.33 14.75 7.5C15.07 7.87 15.34 8.29001 15.42 9.14001C15.47 9.73001 15.43 10.36 15.4 10.71V10.74C15.39 10.85 15.42 10.89 15.52 10.89C15.54 10.89 15.56 10.89 15.58 10.88C15.65 10.86 15.74 10.83 15.85 10.79C16 10.73 16.18 10.66 16.37 10.62C16.42 10.6 16.47 10.6 16.52 10.6C16.69 10.6 16.84 10.67 16.9 10.84C16.99 11.08 16.87 11.27 16.59 11.47C16.54 11.51 16.44 11.58 16.32 11.64C16.08 11.8 15.76 12 15.67 12.09C15.53 12.22 15.54 12.32 15.56 12.44C15.56 12.45 15.56 12.46 15.56 12.46C15.58 12.57 15.88 14.01 17.8 14.94C17.95 15 18.15 15.12 17.81 15.31Z" fill="white"/>
</svg>
